<?xml version="1.0" encoding="UTF-8"?>
<svg width="76px" height="86px" viewBox="0 0 76 86" version="1.1" xmlns="http://www.w3.org/2000/svg" xmlns:xlink="http://www.w3.org/1999/xlink">
    <!-- Generator: Sketch 46.2 (44496) - http://www.bohemiancoding.com/sketch -->
    <title>preparazione@2x</title>
    <desc>Created with Sketch.</desc>
    <defs></defs>
    <g id="home" stroke="none" stroke-width="1" fill="none" fill-rule="evenodd">
        <g id="Food2Train-postworkout-NO-e-commerce" transform="translate(-378.000000, -1256.000000)" fill="#236961">
            <g id="Group-5" transform="translate(379.000000, 1256.000000)">
                <g id="preparazione" transform="translate(1.000000, 0.000000)">
                    <g id="cuoco-green-copy">
                        <g id="Page-1">
                            <path d="M60.7632348,72.0325358 L20.6670511,72.0325358 C19.7052693,72.0325358 19.0630111,71.3985736 19.0630111,70.4492151 L19.0630111,37.9951019 C12.4878921,35.9363094 7.99690112,29.9215925 7.99690112,22.9559321 C7.99690112,13.2991019 16.8167128,5.54098868 26.7620821,7.44129057 C29.8079919,2.84981887 35.1018057,0.000158490566 40.715143,0.000158490566 C46.3284802,0.000158490566 51.6206884,2.84981887 54.6682038,7.44129057 C55.6299856,7.2828 56.593373,7.12430943 57.5551548,7.12430943 C66.3765721,7.12430943 73.5939494,14.2484604 73.5939494,22.9559321 C73.5939494,29.7631019 69.1029584,35.7794038 62.5278394,37.9951019 L62.5278394,70.4492151 C62.3672748,71.3985736 61.7250166,72.0325358 60.7632348,72.0325358 L60.7632348,72.0325358 Z M22.2710911,68.8658943 L59.1591948,68.8658943 L59.1591948,36.7287623 C59.1591948,35.9363094 59.6408885,35.3039321 60.4421057,35.1454415 C66.2160075,33.7206113 70.2253047,28.6552528 70.2253047,22.9559321 C70.2253047,15.9902717 64.4514029,10.2909509 57.3945902,10.2909509 C56.4328084,10.2909509 55.3104621,10.4494415 54.1881158,10.7648377 C53.5458575,10.9233283 52.7446403,10.6063472 52.4235112,9.97396981 C50.0166483,5.85796981 45.527263,3.1668 40.5545784,3.1668 C35.7424583,3.1668 31.0925084,5.69947925 28.6856456,9.97396981 C28.3661221,10.6063472 27.5632993,10.9233283 26.9226466,10.7648377 C18.5813174,8.54913962 11.0444166,15.0393283 11.0444166,22.9559321 C11.0444166,28.8137434 15.0537138,33.8791019 20.8276157,35.1454415 C21.4682683,35.3039321 22.1105266,35.9363094 22.1105266,36.7287623 L22.1105266,68.8658943 L22.2710911,68.8658943 Z" id="Fill-1"></path>
                            <path d="M36.705364,62.5337208 C35.7435823,62.5337208 35.101324,61.8997585 35.101324,60.9504 L35.101324,45.1187774 C35.101324,44.1694189 35.7435823,43.5354566 36.705364,43.5354566 C37.6671458,43.5354566 38.309404,44.1694189 38.309404,45.1187774 L38.309404,60.9504 C38.309404,61.8997585 37.6671458,62.5337208 36.705364,62.5337208" id="Fill-3"></path>
                            <path d="M44.7244402,62.5337208 C43.7626584,62.5337208 43.1204002,61.8997585 43.1204002,60.9504 L43.1204002,45.1187774 C43.1204002,44.1694189 43.7626584,43.5354566 44.7244402,43.5354566 C45.686222,43.5354566 46.3284802,44.1694189 46.3284802,45.1187774 L46.3284802,60.9504 C46.3284802,61.8997585 45.686222,62.5337208 44.7244402,62.5337208" id="Fill-5"></path>
                            <path d="M28.6859667,62.5337208 C27.724185,62.5337208 27.0819267,61.8997585 27.0819267,60.9504 L27.0819267,48.2854189 C27.0819267,47.3360604 27.724185,46.7020981 28.6859667,46.7020981 C29.6477485,46.7020981 30.2900067,47.3360604 30.2900067,48.2854189 L30.2900067,60.9504 C30.2900067,61.8997585 29.6477485,62.5337208 28.6859667,62.5337208" id="Fill-7"></path>
                            <path d="M52.7438375,62.5337208 C51.7820557,62.5337208 51.1397975,61.8997585 51.1397975,60.9504 L51.1397975,48.2854189 C51.1397975,47.3360604 51.7820557,46.7020981 52.7438375,46.7020981 C53.7056193,46.7020981 54.3478775,47.3360604 54.3478775,48.2854189 L54.3478775,60.9504 C54.3478775,61.8997585 53.7056193,62.5337208 52.7438375,62.5337208" id="Fill-9"></path>
                            <path d="M60.7632348,67.2832075 L20.6670511,67.2832075 C19.7052693,67.2832075 19.0630111,66.6492453 19.0630111,65.6998868 C19.0630111,64.7505283 19.7052693,64.116566 20.6670511,64.116566 L60.7632348,64.116566 C61.7250166,64.116566 62.3672748,64.7505283 62.3672748,65.6998868 C62.3672748,66.6492453 61.7250166,67.2832075 60.7632348,67.2832075" id="Fill-11"></path>
                            <path d="M36.4910103,63.6162113 C36.4910103,58.0199094 32.0433718,52.0273811 25.4216891,52.0273811 C22.163834,52.0273811 19.9062962,53.3365132 18.4371304,54.7090415 C16.9679646,53.3365132 14.7120324,52.0273811 11.4525717,52.0273811 C4.83088898,52.0273811 0.383250474,58.0199094 0.383250474,63.6162113 C0.383250474,71.3870038 14.156479,81.0295698 16.9165839,82.8839094 C17.3677704,83.1850415 17.8928165,83.345117 18.4371304,83.345117 C18.9798386,83.345117 19.5048848,83.1850415 19.9544656,82.8854943 C22.7193874,81.0295698 36.4910103,71.3870038 36.4910103,63.6162113" id="Fill-13" stroke="#FFFFFF" stroke-width="4"></path>
                        </g>
                    </g>
                </g>
            </g>
        </g>
    </g>
</svg>