<?xml version="1.0" encoding="utf-8"?>
<!-- Generator: Adobe Illustrator 19.0.0, SVG Export Plug-In . SVG Version: 6.00 Build 0)  -->
<svg version="1.1" id="Layer_1" xmlns="http://www.w3.org/2000/svg" xmlns:xlink="http://www.w3.org/1999/xlink" x="0px" y="0px"
	 viewBox="0 0 77.9 56.9" style="enable-background:new 0 0 77.9 56.9;" xml:space="preserve">
<style type="text/css">
	.st0{clip-path:url(#SVGID_2_);fill:#ED0F0F;}
</style>
<g>
	<defs>
		<rect id="SVGID_1_" x="0" y="0" width="77.9" height="56.9"/>
	</defs>
	<clipPath id="SVGID_2_">
		<use xlink:href="#SVGID_1_" />
	</clipPath>
	<path class="st0" d="M70.3,0H7.7C3.4,0,0,3.5,0,7.7v41.5c0,4.3,3.5,7.7,7.7,7.7h62.5c4.3,0,7.7-3.5,7.7-7.7V7.7
		C78,3.5,74.5,0,70.3,0 M70.5,13.8L55.1,29.3l12.4,12.4c0.8,0.8,0.8,2,0,2.8c-0.4,0.4-0.9,0.6-1.4,0.6s-1-0.2-1.4-0.6L52.2,32.1
		l-7.6,7.6C43.1,41.3,41,42,39,42s-4.1-0.8-5.6-2.3l-7.5-7.8L12.4,45.5C12,45.8,11.5,46,11,46s-1-0.2-1.4-0.6c-0.8-0.8-0.8-2,0-2.8
		l13.5-13.5L7.5,12.9c-0.8-0.8-0.7-2.1,0.1-2.8c0.8-0.8,2.1-0.7,2.8,0.1L36.2,37c1.5,1.5,4,1.5,5.5,0l26-26c0.8-0.8,2-0.8,2.8,0
		S71.3,13,70.5,13.8"/>
</g>
</svg>
