<?xml version="1.0" encoding="utf-8"?>
<!-- Generator: Adobe Illustrator 19.0.0, SVG Export Plug-In . SVG Version: 6.00 Build 0)  -->
<svg version="1.1" id="Layer_1" xmlns="http://www.w3.org/2000/svg" xmlns:xlink="http://www.w3.org/1999/xlink" x="0px" y="0px"
	 viewBox="2329 457 1000 609" style="enable-background:new 2329 457 1000 609;" xml:space="preserve">
<style type="text/css">
	.st0{fill:#575757;}
</style>
<path class="st0" d="M3217,1067c-257.3,0-514.7,0-772,0c-0.3-18.4-0.8-36.9-0.9-55.3c-0.1-8.8,0.5-17.5,1-26.3
	c0.5-8.4,1.2-16.7,2-25.1c1.8-19.9,10-37.3,20.2-54.1c11.4-18.6,26.2-34.5,40.7-50.6c16.7-18.4,33.7-36.4,50.5-54.7
	c5.1-5.6,10.1-11.3,15-17.1c11.7-13.6,23.2-27.3,34.9-40.9c8.9-10.4,18-20.6,26.9-30.9c2.8-3.2,3.8-6.8,3.7-11.2
	c-0.3-23.5-0.1-47-0.1-70.5c0-6.9,2.1-7.5,7.5-7.5c28.3,0.2,56.7,0.1,85,0.1c1.8,0,3.5,0,5.5,0c0,8.2,0,15.7,0,23.2
	c0,12.4-0.3,24.8,0.2,37.1c0.3,7.3,2.5,10,8.1,10.6c10.9,1.3,21.9,2.8,32.9,3c15.3,0.3,30.5-0.8,45.8-0.8c16.9,0,33.9,0.7,50.8,0.9
	c8.1,0.1,16.2-0.5,24.3-1c4.6-0.2,9.2-0.4,13.8-1.1c8.3-1.2,8.4-1.4,10-9.6c0.8-4.2,1.1-8.5,1.2-12.8c0.1-14.7,0.1-29.4,0-44.1
	c0-4.3,1.8-5.5,6-5.5c28.7,0.2,57.3,0.1,86,0.1c1.6,0,3.2,0.1,5.1,0.2c0,2.7,0,5.1,0,7.4c-0.1,8.9,0,17.7-0.2,26.6
	c-0.1,3.3-0.8,6.5-0.9,9.8c-0.4,10.5-1.2,21-0.7,31.4c0.2,4.6,2.6,9.5,5.3,13.4c4.3,6.3,9.6,12.1,14.7,17.9
	c13.4,15.2,27,30.3,40.4,45.5c12.2,13.8,24.4,27.7,36.6,41.6c13.4,15.4,26.8,30.8,40.2,46.2c11.2,12.9,22.3,26,33.8,38.7
	c18.8,20.5,27.1,44.8,26.7,72.3c-0.2,15.1-0.9,30.2-0.9,45.3C3216.1,1035.1,3216.7,1051.1,3217,1067z"/>
<path class="st0" d="M2330,730c0-13,0-26,0-39c0.7-3.9,1.5-7.9,2-11.8c2.1-18.7,6.5-36.9,11.9-54.9c10.1-33.6,25.1-65.1,42-95.8
	c0.8-1.5,2.6-3,4.2-3.5c23.3-7.9,46.4-16.2,69.9-23.3c17-5.1,34.4-8.8,51.7-12.7c16.1-3.6,32.2-6.9,48.4-9.9
	c11.1-2.1,22.3-3.5,33.5-5.1c10.5-1.5,21.1-2.8,31.7-4.1c10.2-1.3,20.4-2.8,30.7-3.9c8.8-0.9,17.7-1.4,26.6-2.1
	c17.2-1.3,34.5-2.8,51.7-3.9c10.6-0.7,21.2-0.7,31.8-1.1c0.7,0,1.4-0.6,2-0.9c39.7,0,79.3,0,119,0c0.7,0.3,1.3,0.9,2,0.9
	c9.1,0.4,18.2,0.6,27.3,1.1c10.5,0.5,21.1,1.2,31.6,2c16.2,1.2,32.5,2.6,48.7,4c13.6,1.2,27.2,2.3,40.7,4.1
	c19.1,2.6,38.2,5.6,57.2,8.9c21.4,3.7,42.8,7.4,63.9,12.3c35.4,8.2,70.4,17.9,104.4,30.8c4,1.5,9.3,3,11,6.2
	c11.9,21.8,23.7,43.6,34.1,66.1c11.2,24.4,17.6,50.4,20.2,77.3c0.4,4.1,1.3,8.2,2,12.3c0,14.3,0,28.7,0,43c-1,4.7-2.1,9.4-3,14.1
	c-2.7,15.5-12,26.3-25.8,32.6c-17.2,7.9-36.1,9.4-54.7,10.1c-20.8,0.8-41.4-1.3-62-4.7c-19.6-3.2-37.9-9.5-54.6-20.3
	c-12.2-7.9-23.5-17.4-27.5-31.7c-3.6-12.6-5.1-26-6.2-39.1c-1.2-13.4-0.6-26.9-1.3-40.3c-0.5-9-1.4-18-3-26.9
	c-2.4-12.4-7.3-23.5-16.8-32.5c-15.7-14.9-35.1-22.7-55-29.1c-23.3-7.6-47.3-12.6-71.6-15.3c-20.7-2.3-41.4-5-62.1-6.8
	c-14.8-1.3-29.7-1.8-44.6-2c-14.1-0.2-28.2,0.3-42.3,0.9c-18.5,0.8-37,1.7-55.4,3c-12.6,0.9-25.2,2-37.7,4.1
	c-15.4,2.6-30.7,6.2-45.9,9.8c-28.4,6.9-54.1,18.7-74,41c-7.3,8.2-12.5,17.4-15.4,28.1c-4.7,17.2-3.2,35-4.9,52.5
	c-1,10.5-1,21.1-2.1,31.6c-1.7,15.8-8.3,29.4-19.4,40.8c-13.4,13.7-30.2,21.7-48.3,27c-22.7,6.8-46,9-69.6,9
	c-18.6,0-37.3,0.7-55.7-3.9c-20.1-5.1-34-16.2-38.1-37.5C2332.1,737.7,2331,733.9,2330,730z"/>
</svg>
