<?xml version="1.0" encoding="UTF-8"?>
<svg width="142px" height="61px" viewBox="0 0 142 61" version="1.1" xmlns="http://www.w3.org/2000/svg" xmlns:xlink="http://www.w3.org/1999/xlink">
    <!-- Generator: Sketch 44.1 (41455) - http://www.bohemiancoding.com/sketch -->
    <title>Food2Train-logovector</title>
    <desc>Created with Sketch.</desc>
    <defs>
        <polygon id="path-1" points="30.2661713 0.00217857143 0.0354635897 0.00217857143 0.0354635897 40.7007257 30.2661713 40.7007257 30.2661713 0.00217857143"></polygon>
    </defs>
    <g id="Symbols" stroke="none" stroke-width="1" fill="none" fill-rule="evenodd">
        <g id="Footer-#04" transform="translate(-34.000000, -206.000000)">
            <g id="Food2Train-logo" transform="translate(34.000000, 206.000000)">
                <g id="Group-6" transform="translate(23.302564, 0.724012)">
                    <path d="M89.1050728,20.234644 L89.1050728,20.2317393 C89.1043446,18.7140012 88.4132779,17.3698226 87.3289805,16.4657155 C87.0879446,16.2674655 86.9881805,15.9457631 87.0741087,15.6458464 C87.203001,15.205775 87.2707241,14.7468226 87.2699959,14.2704417 C87.2692677,11.6960964 85.2987446,9.59740595 82.7740574,9.37083452 C82.3699036,9.32944167 82.062601,8.99031071 82.0662421,8.58509643 L82.0662421,8.56185833 C82.0655138,5.83573929 79.8510421,3.63973929 77.1071651,3.64046548 C76.8508369,3.64046548 76.5988779,3.65862024 76.3403651,3.7000131 C75.977719,3.753025 75.6274523,3.54388214 75.4971036,3.20184643 C74.7936574,1.34207262 72.9767856,0.0138702381 70.8482421,0.0145964286 C69.4624677,0.0145964286 68.2252472,0.584655952 67.3259138,1.49529881 C67.0819651,1.73929881 66.7054831,1.79594167 66.4003651,1.633275 C65.7056574,1.26654881 64.9221087,1.05522738 64.0824882,1.05522738 C61.3386113,1.05595357 59.1219549,3.25340595 59.1226831,5.97879881 C59.1234113,7.99833452 60.3511651,9.7230369 62.0915754,10.4848107 C62.5503446,10.688144 62.7025395,11.2618345 62.4047036,11.6648702 C61.9619549,12.2755964 61.8337908,13.0526202 61.7092677,13.8260131 C62.2430421,13.5478821 62.7986626,13.2980726 63.2851036,12.964025 C63.3841395,12.8696202 63.4868164,12.7795726 63.5792985,12.6800845 C63.4678831,12.4629536 63.3528267,12.2494536 63.2603446,12.0228821 C62.7658933,11.0185607 64.3592062,10.3707988 64.710201,11.4324893 C65.0014831,12.144156 65.412919,12.7817512 65.9037292,13.3430964 C67.0302626,14.5478464 68.5201703,15.3510131 70.1753805,15.5797631 C70.4957908,15.1135488 70.865719,14.6785607 71.2815241,14.2864179 C71.8218523,13.745406 72.7393908,14.2152512 72.6126831,14.9675845 C72.5828267,15.1418702 72.491801,15.3001798 72.3578113,15.4170964 C71.8742831,15.8738702 71.49416,16.4235964 71.1686523,17.0045488 C70.6581805,18.0292036 70.3639856,19.1700488 70.3537908,20.3428464 C70.3384985,21.3762155 70.55696,22.3812631 70.9399959,23.3115131 C71.2742421,24.0246321 71.7075241,24.6898226 72.2682421,25.240275 C73.1333497,25.968644 71.9077805,27.2046202 71.1679241,26.349894 C70.8009087,25.9904298 70.4761292,25.5917512 70.1870318,25.1734655 C68.4611856,25.4479655 66.9312267,26.3520726 65.7784779,27.6570369 C65.3604882,28.1297869 65.0167754,28.7187274 64.7276779,29.2038226 C64.3737703,30.230656 62.83216,29.6344536 63.2647138,28.6388464 C63.4365703,28.2031321 63.6484779,27.787025 63.8836882,27.3854417 C63.5275959,26.7667274 63.0680985,26.2228107 62.5284985,25.7653107 C62.0602626,25.4915369 61.5709087,25.2424536 61.0626215,25.0347631 C60.9118831,25.5009774 60.6919651,25.938144 60.6919651,26.456644 C60.6926933,27.5328583 61.0436882,28.5233821 61.6313497,29.3330845 C61.9102523,29.7136083 61.7900985,30.2517155 61.3772062,30.4797393 C59.8778318,31.3264774 58.8758215,32.9124774 58.8758215,34.7540964 C58.8765497,37.4802155 61.0815549,39.6762155 63.82616,39.6754893 C64.6701497,39.6754893 65.4602523,39.4765131 66.1527754,39.1090607 C66.4586215,38.9449417 66.83656,39.0008583 67.0819651,39.2470369 C67.9805703,40.1533226 69.2214318,40.7139417 70.6050215,40.7132155 C72.7335651,40.7132155 74.5344164,39.3850131 75.2371344,37.5237869 C75.3682113,37.1752155 75.7272164,36.9667988 76.0956882,37.0256202 C76.3396369,37.0670131 76.602519,37.085894 76.86176,37.085894 C79.6056369,37.0851679 81.807001,34.889894 81.8062728,32.1630488 L81.8062728,32.1507036 C81.7902523,31.736775 82.112119,31.3867512 82.5264677,31.3526202 C85.0540677,31.1275012 87.0209497,29.0295369 87.0202215,26.4537393 C87.0194933,25.9679179 86.947401,25.4929893 86.8112267,25.042025 C86.7187446,24.7246798 86.8345292,24.3833702 87.1025087,24.1887512 C88.3215241,23.2904536 89.1065292,21.8620369 89.1065292,20.234644 L89.1050728,20.234644 Z" id="Fill-1" fill="#236960"></path>
                    <g id="Group-5">
                        <mask id="mask-2" fill="white">
                            <use xlink:href="#path-1"></use>
                        </mask>
                        <g id="Clip-4"></g>
                        <path d="M0.03692,20.2221536 L0.03692,20.2192488 C0.0376482051,18.7015107 0.728714872,17.3573321 1.81301231,16.453225 C2.05404821,16.254975 2.15381231,15.9332726 2.0678841,15.633356 C1.93899179,15.1932845 1.87199692,14.7343321 1.87199692,14.2579512 C1.87272513,11.683606 3.84324821,9.58491548 6.36793538,9.35834405 C6.77208923,9.31695119 7.07939179,8.97782024 7.07575077,8.57260595 L7.07575077,8.54864167 C7.07647897,5.82324881 9.29095077,3.62724881 12.0348277,3.627975 C12.2911559,3.627975 12.5431149,3.64612976 12.8016277,3.68752262 C13.1642738,3.74053452 13.5145405,3.53139167 13.6448892,3.18935595 C14.3483354,1.32958214 16.1652072,0.0013797619 18.2937508,0.00210595238 C19.6795251,0.00210595238 20.9167456,0.572165476 21.816079,1.48208214 C22.0600277,1.72680833 22.4365097,1.78345119 22.7416277,1.62078452 C23.4363354,1.25405833 24.2198841,1.0427369 25.0595046,1.0427369 C27.8033815,1.0434631 30.0200379,3.24091548 30.0193097,5.96630833 C30.0185815,7.98584405 28.7908277,9.71054643 27.0504174,10.4723202 C26.5916482,10.6756536 26.4394533,11.249344 26.7372892,11.6523798 C27.1800379,12.263106 27.3082021,13.0394036 27.4327251,13.8135226 C26.8989508,13.5346655 26.3433303,13.2855821 25.8568892,12.9515345 C25.7585815,12.8571298 25.6551764,12.7670821 25.5626944,12.6668679 C25.6741097,12.4504631 25.7891662,12.2369631 25.8816482,12.0096655 C26.3760995,11.0060702 24.7827867,10.3575821 24.4317918,11.4199988 C24.1405097,12.1316655 23.7290738,12.7692607 23.2382636,13.330606 C22.1117303,14.535356 20.6218226,15.3385226 18.9666123,15.5672726 C18.6462021,15.1010583 18.2770021,14.6660702 17.8604687,14.2732012 C17.3208687,13.7329155 16.4026021,14.2027607 16.5293097,14.955094 C16.5591662,15.1293798 16.6501918,15.2876893 16.7841815,15.404606 C17.2684379,15.8613798 17.6478328,16.4103798 17.9733405,16.9913321 C18.4838123,18.0167131 18.7780072,19.1575583 18.7882021,20.330356 C18.8034944,21.363725 18.5850328,22.3687726 18.2019969,23.2990226 C17.8677508,24.0121417 17.4344687,24.6773321 16.8737508,25.2277845 C16.0086431,25.9561536 17.2342123,27.1914036 17.9740687,26.3374036 C18.3410841,25.9779393 18.6658636,25.5792607 18.954961,25.160975 C20.6808072,25.435475 22.2107662,26.3395821 23.3635149,27.6445464 C23.7815046,28.1172964 24.1252174,28.7062369 24.4143149,29.1913321 C24.7682226,30.2181655 26.3098328,29.6219631 25.877279,28.626356 C25.7054226,28.1906417 25.4935149,27.7745345 25.2583046,27.3729512 C25.6151251,26.7542369 26.6134944,25.7528202 26.6134944,25.7528202 C26.6134944,25.7528202 27.4866123,24.882844 27.6817713,25.0600345 C27.8776585,25.237225 28.4500277,25.9256536 28.4500277,26.4441536 C28.4492995,27.5203679 28.0983046,28.5108917 27.5106431,29.320594 C27.2317405,29.7011179 27.3518944,30.239225 27.7647867,30.4672488 C29.264161,31.3132607 30.2661713,32.8999869 30.2661713,34.741606 C30.2654431,37.467725 28.0604379,39.663725 25.3158328,39.6629988 C24.4718431,39.6629988 23.6817405,39.4640226 22.9892174,39.0965702 C22.6833713,38.9324512 22.3054328,38.9883679 22.0600277,39.2345464 C21.1614226,40.1408321 19.920561,40.7014512 18.5369713,40.700725 C16.4084277,40.700725 14.6075764,39.3725226 13.9048585,37.5112964 C13.7737815,37.162725 13.4147764,36.9543083 13.0470328,37.0131298 C12.8023559,37.0545226 12.5394738,37.0734036 12.2802328,37.0734036 C9.5363559,37.0726774 7.33499179,34.8774036 7.33572,32.1505583 L7.33572,32.1382131 C7.35174051,31.7242845 7.02987385,31.3742607 6.61552513,31.3401298 C4.08865333,31.1150107 2.12177128,29.0170464 2.12249949,26.4412488 C2.12249949,25.9547012 2.19459179,25.4804988 2.33076615,25.0288083 C2.42324821,24.7121893 2.30746359,24.3701536 2.0394841,24.1755345 C0.820468718,23.2779631 0.0354635897,21.8495464 0.0354635897,20.2221536 L0.03692,20.2221536 Z" id="Fill-3" fill="#236960" mask="url(#mask-2)"></path>
                    </g>
                </g>
                <polygon id="Fill-7" fill="#FCC700" points="82.9107415 60.6304417 82.9107415 49.015025 78.6980749 49.015025 78.6980749 45.6455012 90.9763415 45.6455012 90.9763415 49.015025 86.785521 49.015025 86.785521 60.6304417"></polygon>
                <path d="M100.594766,60.6304417 L98.0715354,55.5979417 L96.0886328,55.5979417 L96.0886328,60.6304417 L92.2138533,60.6304417 L92.2138533,45.6455012 L99.7383969,45.6455012 C103.072848,45.6455012 104.965453,47.8465845 104.965453,50.6329774 C104.965453,53.2385488 103.388161,54.6321083 101.968889,55.1259179 L105.033176,60.6304417 L100.594766,60.6304417 Z M101.022951,50.6104655 C101.022951,49.5770964 100.189156,49.015025 99.15292,49.015025 L96.0886328,49.015025 L96.0886328,52.2276917 L99.15292,52.2276917 C100.189156,52.2276917 101.022951,51.6663464 101.022951,50.6104655 L101.022951,50.6104655 Z" id="Fill-8" fill="#FCC700"></path>
                <path d="M116.701426,60.6304417 L115.957928,58.473656 L110.032523,58.473656 L109.289026,60.6304417 L104.896492,60.6304417 L110.551005,45.6455012 L115.440174,45.6455012 L121.094687,60.6304417 L116.701426,60.6304417 Z M113.006513,49.4645369 L111.092062,55.103406 L114.899118,55.103406 L113.006513,49.4645369 Z" id="Fill-10" fill="#FCC700"></path>
                <polygon id="Fill-11" fill="#FCC700" points="121.58841 60.630369 125.46319 60.630369 125.46319 45.6454286 121.58841 45.6454286"></polygon>
                <polygon id="Fill-12" fill="#FCC700" points="137.628803 45.6448476 137.628803 53.8900143 131.545377 45.6448476 127.558454 45.6448476 127.558454 60.6305143 131.433234 60.6305143 131.433234 51.9583476 137.786095 60.6305143 141.526157 60.6305143 141.526157 45.6448476"></polygon>
                <polygon id="Fill-13" fill="#FCC700" points="0 45.4134833 0 60.3984238 3.87550769 60.3984238 3.87550769 54.4894119 10.8589949 54.4894119 10.8589949 51.1198881 3.87550769 51.1198881 3.87550769 48.7830071 11.0170154 48.7830071 11.0170154 45.4134833"></polygon>
                <g id="Group-37" transform="translate(11.651282, 5.807345)">
                    <path d="M0.085054359,47.1100821 C0.085054359,42.5488798 3.53164923,39.358725 8.12808,39.358725 C12.7237826,39.358725 16.1485313,42.5488798 16.1485313,47.1100821 C16.1485313,51.6705583 12.7237826,54.8607131 8.12808,54.8607131 C3.53164923,54.8607131 0.085054359,51.6705583 0.085054359,47.1100821 M12.2053005,47.1100821 C12.2053005,44.6613679 10.6061621,42.7739988 8.12808,42.7739988 C5.64999795,42.7739988 4.02755692,44.6613679 4.02755692,47.1100821 C4.02755692,49.5362845 5.64999795,51.4461655 8.12808,51.4461655 C10.6061621,51.4461655 12.2053005,49.5362845 12.2053005,47.1100821" id="Fill-14" fill="#FCC700"></path>
                    <path d="M34.1453928,54.591369 L34.1453928,39.6064286 L40.4538338,39.6064286 C45.1849826,39.6064286 48.5864287,42.437119 48.5864287,47.0876429 C48.5864287,51.7381667 45.1849826,54.591369 40.4764082,54.591369 L34.1453928,54.591369 Z M44.6213518,47.0876429 C44.6213518,44.7732738 43.2246544,42.9759524 40.4764082,42.9759524 L38.0201723,42.9759524 L38.0201723,51.221119 L40.4538338,51.221119 C43.0892082,51.221119 44.6213518,49.3112381 44.6213518,47.0876429 L44.6213518,47.0876429 Z" id="Fill-16" fill="#FCC700"></path>
                    <path d="M16.7323333,47.1100821 C16.7323333,42.5488798 20.1789282,39.358725 24.775359,39.358725 C29.3710615,39.358725 32.7958103,42.5488798 32.7958103,47.1100821 C32.7958103,51.6705583 29.3710615,54.8607131 24.775359,54.8607131 C20.1789282,54.8607131 16.7323333,51.6705583 16.7323333,47.1100821 M28.8525795,47.1100821 C28.8525795,44.6613679 27.253441,42.7739988 24.775359,42.7739988 C22.2972769,42.7739988 20.6748359,44.6613679 20.6748359,47.1100821 C20.6748359,49.5362845 22.2972769,51.4461655 24.775359,51.4461655 C27.253441,51.4461655 28.8525795,49.5362845 28.8525795,47.1100821" id="Fill-18" fill="#FCC700"></path>
                    <path d="M49.9618626,54.8534512 L49.9618626,50.2537607 C58.9224267,43.9555107 59.7736985,43.2227845 59.7736985,41.7580583 C59.7736985,40.8205464 58.7753292,40.2345107 57.5118933,40.2345107 C55.4263138,40.2345107 53.8395549,40.9962845 52.3416369,42.256225 L49.1098626,38.3304393 C51.3716677,35.9282012 54.6624267,35.0197369 57.3946523,35.0197369 C62.4767959,35.0197369 65.7966831,37.8322726 65.7966831,41.7580583 C65.7966831,44.4239036 64.2689087,46.621356 59.5974728,49.6974988 L65.9729087,49.6974988 L65.9729087,54.8534512 L49.9618626,54.8534512 Z" id="Fill-20" fill="#FCC700"></path>
                    <path d="M31.1252349,11.3690929 C33.41544,11.141069 34.6351836,10.104069 36.2153887,8.75045 C36.9057272,9.42072381 37.7249579,9.93559286 38.6039015,10.3284619 C38.9527118,10.5042 39.3153579,10.6559738 39.6947528,10.7685333 C39.74864,10.7866881 39.8032554,10.7924976 39.8578708,10.7983071 C40.3217374,10.9224857 40.7965272,11.0154381 41.2829682,11.0611881 C42.9636656,11.2194976 43.8906708,11.1722952 43.8906708,11.1722952 L44.0020862,17.1880571 C44.0020862,17.1880571 42.5362092,17.1452119 40.6683631,17.5337238 C40.4688349,17.5751167 40.2744041,17.6332119 40.0799733,17.6898548 C40.0129785,17.690581 39.9452554,17.7014738 39.8811733,17.7189024 C38.0380862,18.2236048 36.5722092,19.4871762 35.428199,20.9744143 C34.2601579,19.8117833 32.7935528,19.0492833 31.1667426,18.6832833 C31.2504862,18.5060929 31.3298605,18.3281762 31.4004964,18.1451762 L35.0386092,18.1459024 C36.1789785,18.2482952 36.1789785,16.4851048 35.0393374,16.5867714 L31.8388759,16.5860452 C31.9320862,16.0631881 31.9823323,15.5301643 31.9779631,14.9898786 C31.9779631,14.4684738 31.9153374,13.9557833 31.8184862,13.4518071 L35.1056041,13.4532595 C36.1556759,13.4532595 36.1564041,11.8817833 35.1056041,11.8817833 L31.3560759,11.880331 C31.2868964,11.7074976 31.2067938,11.5404738 31.1259631,11.3727238 L31.1252349,11.3690929 Z" id="Fill-22" fill="#FCC700"></path>
                    <path d="M77.1782379,12.094194 L80.9284944,12.0934679 C80.9969456,11.9206345 81.0770482,11.7528845 81.157879,11.5858607 L81.1586072,11.5815036 C78.8684021,11.3534798 77.6486585,10.3164798 76.0684533,8.96286071 C75.3781149,9.63313452 74.5596123,10.1480036 73.6806687,10.5408726 C73.3311303,10.7166107 72.9692123,10.8691107 72.5890892,10.9816702 C72.5788944,10.984575 72.5679713,10.9860274 72.5577764,10.9889321 C72.4805867,12.8269202 72.2045969,15.2233488 71.4181354,17.7083726 C71.4858585,17.7207179 71.5513969,17.7330631 71.615479,17.7461345 C71.8157354,17.7875274 72.0094379,17.8463488 72.2038687,17.9022655 C72.2715918,17.9037179 72.3393149,17.9138845 72.4033969,17.9320393 C74.2457559,18.4360155 75.7116328,19.7003131 76.8556431,21.186825 C78.0236841,20.024194 79.4902892,19.2624202 81.1170995,18.895694 C81.0340841,18.7192298 80.9539815,18.5405869 80.8833456,18.3575869 L77.2452328,18.3583131 C76.1048636,18.460706 76.1048636,16.6975155 77.2452328,16.7991821 L80.4449662,16.798456 C80.3524841,16.276325 80.3022379,15.742575 80.3066072,15.2022893 C80.305879,14.6816107 80.3692328,14.168194 80.4653559,13.664944 L77.1789662,13.6656702 C76.1281662,13.6656702 76.1274379,12.094194 77.1782379,12.094194" id="Fill-24" fill="#FCC700"></path>
                    <path d="M67.7231497,6.08736429 C67.5622164,6.08736429 67.394001,6.09970952 67.2112215,6.12585238 C67.1617036,6.12875714 67.1107292,6.13456667 67.053201,6.14328095 C66.3883497,6.24494762 66.0453651,6.08082857 65.7344215,5.49551905 C65.3637651,3.53117381 63.6641344,2.11728095 61.6491908,2.11728095 C60.9129754,2.11728095 60.1869549,2.31553095 59.5454062,2.69097143 C59.3109241,2.77085238 59.1893138,2.73817381 59.1128523,2.68370952 C58.5033446,1.07156667 56.9617344,0.000435714286 55.2220523,0.000435714286 C53.5369856,0.000435714286 51.99756,1.04034048 51.3662062,2.59656667 L51.348001,2.63142381 C51.2212933,2.87397143 51.1397344,2.96619762 51.1069651,2.99669762 L51.1055087,2.99669762 C50.4180831,2.53629286 49.6221549,2.29374524 48.7941856,2.29374524 C46.5309241,2.29374524 44.7060421,4.06201905 44.638319,6.31974524 L44.638319,6.3379 L44.8276523,15.6447571 C44.8276523,15.652019 44.8225549,15.659281 44.8174574,15.6658167 L44.8487703,17.0993167 C45.2281651,17.0833405 45.5806164,16.9272095 45.8434985,16.6534357 C46.1136626,16.3716738 46.2578472,16.002769 46.2491087,15.613531 L46.0605036,6.34443571 C46.1136626,4.8666381 47.3108318,3.71199524 48.7941856,3.71199524 C49.3680113,3.71199524 49.9185344,3.8899119 50.3874985,4.2261381 L50.4785241,4.29149524 L50.5855703,4.32562619 C51.8388113,4.72720952 52.3893344,3.7069119 52.59396,3.31549524 L52.6660523,3.17606667 C53.0687497,2.12526905 54.0962472,1.41868571 55.2220523,1.41868571 C56.4061138,1.41868571 57.45036,2.17247143 57.8210164,3.29443571 L57.8661651,3.43095952 L57.9608318,3.5391619 C58.4946062,4.1498881 59.2781549,4.31545952 60.1090369,3.99520952 L60.2233651,3.93929286 C60.6573754,3.67495952 61.1503703,3.53553095 61.6491908,3.53553095 C63.0007395,3.53553095 64.1367395,4.50209048 64.3501036,5.83465 L64.3668523,5.93994762 L64.4141856,6.03507857 C65.0062164,7.23692381 65.966719,7.74453095 67.2665651,7.54482857 C67.2833138,7.54265 67.2986062,7.54119762 67.3131703,7.54047143 L67.3874472,7.53320952 C67.5134267,7.51432857 67.6226574,7.50561429 67.7231497,7.50561429 C68.9894985,7.50561429 70.0199087,8.53317381 70.0199087,9.79529286 L70.0199087,11.1881262 C69.7126062,15.3186976 68.8023497,21.0802929 64.49356,23.55515 L64.1148933,23.772281 L64.1221754,23.9008167 L64.0682882,23.9284119 L65.0695703,35.8974833 C65.7082062,36.4617333 66.2427087,37.1109476 66.6585138,37.8320548 L65.5625651,24.7344833 L65.5895087,24.7206857 L65.5807703,24.5558405 C70.1582677,21.6416381 71.1194985,15.6033643 71.4399087,11.2665548 L71.4420933,9.79529286 C71.4420933,7.75106667 69.7737754,6.08736429 67.7231497,6.08736429 L67.7231497,6.08736429 Z M52.5823087,3.33365 L52.5837651,3.33074524 L52.5823087,3.33365 Z" id="Fill-26" fill="#FCC700"></path>
                    <path d="M43.6237108,9.23924881 L43.6055056,9.15501071 C43.3739364,8.3329631 42.8452595,8.065725 42.5510646,7.97930833 C41.9983569,7.81882024 41.3487979,8.004725 40.8150236,8.477475 L39.9404492,9.34962976 C40.4115979,9.51229643 40.9497415,9.63574881 41.5709005,9.727975 L41.7740697,9.52536786 C41.9590338,9.36633214 42.1163262,9.33728452 42.1410851,9.33510595 C42.1410851,9.33583214 42.183321,9.37141548 42.2255569,9.50212976 L42.2736185,9.81729643 C42.2918236,9.819475 42.3114851,9.82092738 42.3289621,9.82237976 C42.4826133,9.83835595 42.6435467,9.85215357 42.8066646,9.86595119 C43.1008595,9.88991548 43.4052492,9.91170119 43.7300287,9.92912976 L43.6237108,9.23924881 Z" id="Fill-28" fill="#FCC700"></path>
                    <path d="M49.1674636,26.4915012 L48.8441405,26.2533107 C48.7625815,26.1937631 48.6671867,26.1015369 48.5841713,26.0194774 L41.3035764,18.8744893 C40.7399456,19.0248107 40.2724379,19.220156 39.8624585,19.4503583 L47.5858021,27.0296083 C47.6156585,27.058656 47.6462431,27.089156 47.6790123,27.119656 L46.4760174,39.6812988 C46.9588174,40.0066321 47.4008379,40.3762631 47.7984379,40.7858345 L49.1674636,26.4915012 Z" id="Fill-30" fill="#FCC700"></path>
                    <path d="M44.7787169,15.6808488 C44.7823579,15.6823012 44.785999,15.6859321 44.7889118,15.685206 C44.7998349,15.6844798 44.8100297,15.6757655 44.81804,15.6655988 L44.8173118,15.6518012 L44.7787169,15.6808488 Z" id="Fill-32" fill="#FEFEFE"></path>
                </g>
            </g>
        </g>
    </g>
</svg>