<?xml version="1.0" encoding="UTF-8"?>
<svg width="82px" height="94px" viewBox="0 0 82 94" version="1.1" xmlns="http://www.w3.org/2000/svg" xmlns:xlink="http://www.w3.org/1999/xlink">
    <!-- Generator: Sketch 46.2 (44496) - http://www.bohemiancoding.com/sketch -->
    <title>Fill 1vector</title>
    <desc>Created with Sketch.</desc>
    <defs></defs>
    <g id="Symbols" stroke="none" stroke-width="1" fill="none" fill-rule="evenodd">
        <g id="valori-nutrizionali-GREEN" transform="translate(0.000000, -1.000000)" fill="#236961">
            <g id="valori-nutrizionali">
                <g id="Group-3" transform="translate(0.000000, 0.773771)">
                    <path d="M71.4660579,93.9816533 L9.66382105,93.9816533 C4.33653158,93.9816533 0.000873684211,90.055437 0.000873684211,85.2292569 L0.000873684211,8.99736755 C-0.00131052632,4.17118738 4.33653158,0.24497114 9.66382105,0.24497114 L71.4660579,0.24497114 C76.7955316,0.24497114 81.1311895,4.17118738 81.1311895,8.99736755 L81.1311895,85.2292569 C81.1311895,90.055437 76.7955316,93.9816533 71.4660579,93.9816533 L71.4660579,93.9816533 Z M9.66382105,4.84962173 C7.14105789,4.84962173 5.0879,6.7108658 5.0879,8.99538961 L5.0879,85.2292569 C5.0879,87.5157586 7.14105789,89.3730468 9.66382105,89.3730468 L71.4660579,89.3730468 C73.9910053,89.3730468 76.0441632,87.5157586 76.0441632,85.2292569 L76.0441632,8.99736755 C76.0441632,6.7108658 73.9910053,4.85159967 71.4660579,4.85159967 L9.66382105,4.85159967 L9.66382105,4.84962173 Z" id="Fill-1"></path>
                </g>
            </g>
        </g>
    </g>
</svg>