<?xml version="1.0" encoding="UTF-8"?>
<svg width="104px" height="109px" viewBox="0 0 104 109" version="1.1" xmlns="http://www.w3.org/2000/svg" xmlns:xlink="http://www.w3.org/1999/xlink">
    <!-- Generator: Sketch 46.2 (44496) - http://www.bohemiancoding.com/sketch -->
    <title>praticitàvector</title>
    <desc>Created with Sketch.</desc>
    <defs></defs>
    <g id="Symbols" stroke="none" stroke-width="1" fill="none" fill-rule="evenodd">
        <g id="praticità-copy">
            <g id="praticità">
                <g id="Page-1">
                    <g id="Group" transform="translate(6.000000, 35.000000)" fill-rule="nonzero" fill="#236961">
                        <path d="M83.7083333,37 C80.3314167,37 77.5833333,39.7293889 77.5833333,43.0833333 C77.5833333,48.6718889 73.0018333,53.2222222 67.375,53.2222222 L30.625,53.2222222 C24.9981667,53.2222222 20.4166667,48.6718889 20.4166667,43.0833333 C20.4166667,39.7293889 17.6685833,37 14.2916667,37 L0,37 L0,63.3611111 C0,68.9496667 4.5815,73.5 10.2083333,73.5 L87.7916667,73.5 C93.4185,73.5 98,68.9496667 98,63.3611111 L98,37 L83.7083333,37 Z" id="Shape"></path>
                        <path d="M14.6914167,32.4444444 C20.31825,32.4444444 24.89975,36.9947778 24.89975,42.5833333 C24.89975,45.9372778 27.6478333,48.6666667 31.02475,48.6666667 L67.77475,48.6666667 C71.1516667,48.6666667 73.89975,45.9372778 73.89975,42.5833333 C73.89975,36.9947778 78.48125,32.4444444 84.1080833,32.4444444 L97.88525,32.4444444 C97.4850833,30.9641667 96.8685,29.5487778 95.99875,28.2550556 L81.2783333,6.32261111 C78.6200833,2.36438889 74.1733333,0 69.3876667,0 L31.6576667,0 C25.4591667,0 19.7220833,3.07005556 16.3125,8.20844444 L3.16416667,28.032 C2.17191667,29.3825 1.46141667,30.8749444 1,32.4444444 L14.6914167,32.4444444 Z" id="Shape"></path>
                    </g>
                    <path d="M32.6870491,57.7220841 C48.6665962,57.7220841 61.6192,45.511976 61.6192,30.4463781 C61.6192,15.3828433 48.6665962,3.17273524 32.6870491,3.17273524 C16.7075019,3.17273524 3.75489811,15.3828433 3.75489811,30.4463781 C3.75489811,45.511976 16.7075019,57.7220841 32.6870491,57.7220841" id="Fill-4" fill="#236961"></path>
                    <path d="M42.6122717,38.5989669 C42.2117434,38.5989669 41.8046491,38.5143751 41.4238189,38.3348754 L30.771517,33.3130094 C29.8675925,32.8859238 29.2985358,32.0173102 29.2985358,31.0661679 L29.2985358,13.4917002 C29.2985358,12.1052195 30.491366,10.9807672 31.9621585,10.9807672 C33.4307623,10.9807672 34.6235925,12.1052195 34.6235925,13.4917002 L34.6235925,29.51463 L43.8051019,33.8432557 C45.1204981,34.4642835 45.6545358,35.9724939 44.9957434,37.2124862 C44.5295547,38.091416 43.5906113,38.5989669 42.6122717,38.5989669 M31.9621585,61.1953007 C14.3367245,61.1953007 0.000875471698,47.6812406 0.000875471698,31.0661679 C0.000875471698,14.4531585 14.3367245,0.937035162 31.9621585,0.937035162 C49.5854038,0.937035162 63.9234415,14.4531585 63.9234415,31.0661679 C63.9234415,47.6812406 49.5854038,61.1953007 31.9621585,61.1953007 M31.9621585,5.95890116 C17.2739321,5.95890116 5.32593208,17.2219934 5.32593208,31.0661679 C5.32593208,44.9103425 17.2739321,56.1734347 31.9621585,56.1734347 C46.6481962,56.1734347 58.5961962,44.9103425 58.5961962,31.0661679 C58.5961962,17.2219934 46.6481962,5.95890116 31.9621585,5.95890116" id="Fill-6" fill="#FEFEFE"></path>
                </g>
            </g>
        </g>
    </g>
</svg>