<?xml version="1.0" encoding="utf-8"?>
<!-- Generator: Adobe Illustrator 19.0.0, SVG Export Plug-In . SVG Version: 6.00 Build 0)  -->
<svg version="1.1" id="Layer_1" xmlns="http://www.w3.org/2000/svg" xmlns:xlink="http://www.w3.org/1999/xlink" x="0px" y="0px"
	 viewBox="-35 156 540 481" style="enable-background:new -35 156 540 481;" xml:space="preserve">
<style type="text/css">
	.st0{fill:#014DA1;}
</style>
<g transform="translate(0.000000,481.000000) scale(0.100000,-0.100000)">
	<path class="st0" d="M-248.9,3271c-26-12-52-35-70-62l-28-43V890v-2276l24-36c13-19,40-46,59-59l36-24h2576h2576l36,24
		c19,13,46,40,59,59l24,36l3,1655c2,1156,0,1667-8,1693c-23,80-108,136-188,126c-21-3-437-199-957-453c-506-246-926-449-932-452
		c-10-4-13,76-13,378c0,352-2,387-19,425c-31,69-106,111-180,101c-20-2-450-206-956-452s-926-449-932-452c-10-4-13,205-15,989
		l-3,994l-24,36c-13,19-40,46-59,59l-36,24l-465,2C-181.9,3290-208.9,3289-248.9,3271z M488.1,1893c0-989,1-1040,19-1079
		c31-69,106-111,180-101c20,2,450,206,956,452s926,449,933,452c9,4,12-76,12-378c0-352,2-387,19-425c31-69,106-111,180-101
		c20,2,450,206,956,452s926,449,933,452c9,4,12-276,12-1381v-1386h-330h-330l-2,658l-3,658l-28,42c-15,23-45,51-67,62
		c-39,20-53,20-508,18l-468-3l-41-27c-24-16-49-44-62-70c-21-44-21-52-21-691v-647h-480h-480l-2,658l-3,658l-24,36
		c-13,19-40,46-59,59l-36,24l-468,3c-455,2-469,2-508-18c-22-11-52-39-67-62l-28-42l-3-658l-2-658h-330H8.1V890v2040h240h240V1893z
		 M1508.1-610v-540h-240h-240v540v540h240h240V-610z M3668.1-610v-540h-240h-240v540v540h240h240V-610z"/>
</g>
</svg>
