<?xml version="1.0" encoding="utf-8"?>
<!-- Generator: Adobe Illustrator 19.0.0, SVG Export Plug-In . SVG Version: 6.00 Build 0)  -->
<svg version="1.1" id="Layer_1" xmlns="http://www.w3.org/2000/svg" xmlns:xlink="http://www.w3.org/1999/xlink" x="0px" y="0px"
	 viewBox="-52 159 506 476" style="enable-background:new -52 159 506 476;" xml:space="preserve">
<style type="text/css">
	.st0{fill:#014DA1;}
</style>
<g transform="translate(0.000000,476.000000) scale(0.100000,-0.100000)">
	<path class="st0" d="M416.4,3125.7l-34-34v-146c0-163,8-194,60-221c37-19,63-19,100,0c55,29,60,45,60,213v154l-34,34
		c-28,28-42,34-76,34S444.4,3153.7,416.4,3125.7z"/>
	<path class="st0" d="M1077.4,2891.7c-16-11-73-65-125-122c-90-98-95-105-95-147c0-38,5-49,33-74c36-33,85-38,130-15
		c15,8,71,59,125,114c92,96,97,103,97,144c0,50-19,82-60,103C1144.4,2914.7,1113.4,2913.7,1077.4,2891.7z"/>
	<path class="st0" d="M-211.6,2869.7c-43-38-53-77-31-124c25-51,204-222,243-231c46-10,102,20,125,67c29,59,13,88-112,211
		c-102,101-110,107-149,107C-167.6,2899.7-184.6,2892.7-211.6,2869.7z"/>
	<path class="st0" d="M370.4,2653.7c-161-38-304-167-360-321c-30-81-36-230-13-309c48-168,168-296,330-355c85-31,245-31,330,0
		c160,58,289,195,331,356c16,59,18,192,3,255c-18,80-71,172-134,235C727.4,2644.7,545.4,2696.7,370.4,2653.7z M619.4,2413.7
		c57-27,101-72,135-137c18-33,23-59,23-122c0-71-3-86-31-135c-78-139-241-190-382-119c-72,35-114,83-142,157
		C131.4,2300.7,382.4,2525.7,619.4,2413.7z"/>
	<path class="st0" d="M-442.6,2259.7c-11-4-31-20-45-35c-32-34-35-102-5-135c36-40,76-50,207-50c145,0,182,13,212,73
		c16,34,17,42,4,75c-8,20-29,47-47,59c-31,21-45,23-170,22C-361.6,2268.7-431.6,2264.7-442.6,2259.7z"/>
	<path class="st0" d="M1126.4,2259.7c-11-4-33-23-48-41c-23-27-27-40-23-72c6-47,39-84,87-98c20-6,90-9,162-7c145,3,173,16,195,82
		c17,48-3,97-49,126c-29,17-50,20-168,19C1208.4,2268.7,1138.4,2264.7,1126.4,2259.7z"/>
	<path class="st0" d="M-17.6,1788.7c-38-15-219-199-230-235c-18-55,24-127,81-139c54-12,93,12,196,118c107,110,121,138,98,194
		C104.4,1780.7,35.4,1810.7-17.6,1788.7z"/>
	<path class="st0" d="M914.4,1785.7c-30-16-62-65-62-94c0-40,25-74,127-174c125-122,168-135,234-68c31,31,39,82,18,123
		c-16,32-179,196-211,213C987.4,1802.7,945.4,1803.7,914.4,1785.7z"/>
	<path class="st0" d="M416.4,1565.7l-34-34v-157v-157l34-34c28-28,42-34,76-34s48,6,76,34l34,34v157v157l-34,34c-28,28-42,34-76,34
		S444.4,1593.7,416.4,1565.7z"/>
	<path class="st0" d="M1154.4,1287.7c-12-8-28-23-36-33c-7-11-143-515-300-1120l-287-1099l15-41c30-79-1-75,665-75h591v-135v-135
		h-355c-382,0-394-1-429-52c-32-45-13-125,38-159c18-12,209-14,1249-17c1356-3,1258-7,1293,59c18,36,18,63-1,99c-28,54-31,55-435,60
		l-375,5l-3,132l-3,133l570,2l571,3l25,25c21,22,62,170,305,1112c154,598,280,1103,280,1123c0,42-22,90-48,104c-12,6-633,12-1663,16
		C1455.4,1299.7,1173.4,1298.7,1154.4,1287.7z M2022.4,1072.7c1-5-27-115-62-245l-62-238h-368c-202,0-368,3-368,6
		c0,6,118,451,125,472c3,9,86,12,370,12C1858.4,1079.7,2022.4,1076.7,2022.4,1072.7z M3172.4,1062.7c0-5-29-114-64-243l-63-235
		l-462-3c-437-2-462-1-457,15c2,10,28,106,56,213s56,210,61,228l11,32h459C2965.4,1069.7,3172.4,1066.7,3172.4,1062.7z
		 M4287.4,1057.7c-2-7-30-110-61-228s-60-225-65-237l-9-23h-435c-341,0-435,3-435,13c0,6,28,119,62,249l63,238h442
		C4199.4,1069.7,4290.4,1066.7,4287.4,1057.7z M1840.4,347.7c-3-7-33-124-69-260l-64-248h-369h-368l6,28c4,15,34,132,68,260l61,232
		h370C1766.4,359.7,1843.4,356.7,1840.4,347.7z M2988.4,342.7c-3-10-28-106-56-213s-58-219-66-247l-15-53h-459c-253,0-460,2-460,4
		c0,6,129,499,135,514c3,9,106,12,465,12C2967.4,359.7,2993.4,358.7,2988.4,342.7z M4097.4,318.7c-4-17-35-135-68-262l-62-232
		l-443-3l-443-2l6,21c4,12,31,113,61,226c29,112,58,222,64,244l11,39h440h441L4097.4,318.7z M1642.4-396.3c0-4-26-107-57-230
		l-57-224h-369c-347,0-369,1-365,18c2,9,29,113,59,229l54,213h368C1477.4-390.3,1642.4-393.3,1642.4-396.3z M2787.4-422.3
		c-3-13-30-115-59-228l-53-205l-462-3c-437-2-462-1-457,15c3,10,28,110,57,223c28,113,54,208,56,213c2,4,211,7,464,7h459
		L2787.4-422.3z M3902.4-407.3c0-5-25-108-56-230l-57-223h-439c-387,0-438,2-438,15c0,9,21,95,46,193c25,97,50,194,55,215l10,37h439
		C3704.4-400.3,3902.4-403.3,3902.4-407.3z M2562.4-1210.3v-140h-265h-265v140v140h265h265V-1210.3z"/>
</g>
</svg>
