<?xml version="1.0" encoding="utf-8"?>
<!-- Generator: Adobe Illustrator 19.0.0, SVG Export Plug-In . SVG Version: 6.00 Build 0)  -->
<svg version="1.1" id="Layer_1" xmlns="http://www.w3.org/2000/svg" xmlns:xlink="http://www.w3.org/1999/xlink" x="0px" y="0px"
	 viewBox="-15 106.4 580.8 581.6" style="enable-background:new -15 106.4 580.8 581.6;" xml:space="preserve">
<style type="text/css">
	.st0{fill:#014DA1;}
</style>
<g>
	<path class="st0" d="M564.1,543.7c-10.8-56.2-57.8-97-114.7-99.4c-32.4-1.4-63.7,9.9-86.7,31.2l-6,5.5h-12.6h-12.6v-25.3v-25.4
		l24.8-16.5l24.8-16.5l8.6-1.3c18-2.5,33.5-10,46.5-22.4c17-16.1,25.6-35.4,26.4-59.1l0.4-11l-11,0.2c-39.9,0.7-72.9,28.3-80.9,67.5
		c-0.9,4.2-1.6,8.5-1.6,9.5c0,1.2-6,5.7-18.1,13.8c-10,6.6-18.5,12.2-19,12.3c-0.5,0.2-0.8-27.4-0.7-65.9l0.3-66.3l6.5-1.2
		c21.1-3.9,41.7-17.7,53.9-35.9c28.3-42.4,12.6-100.3-33.3-122.5c-14.4-7-32.5-10-47.5-8c-35.3,4.8-64.4,31.7-71.6,66
		c-2.1,10.2-2,27.9,0.4,37.1c6.7,26.4,23.2,46.3,47.5,57.4c7.1,3.3,18.3,6.5,22.4,6.5h2.2v43.1c0,34.1-0.3,42.9-1.2,42.3
		c-2.4-1.4-34.3-22.7-35-23.3c-0.4-0.4-1.5-4.6-2.3-9.5c-2.9-16.6-11.2-33.1-21.9-43.6l-4.6-4.4v-8.1c0-10.7-2-17.1-7.2-23
		c-5.6-6.3-12.4-9.5-20.4-9.5c-10.8,0-19.6,4.7-24.2,13c-2.7,4.9-2.8,4.9-8.2,5.2l-5.5,0.3v9.2c0,8.4-0.2,9.3-1.8,9.3
		c-3.2,0-7.7-5.4-7.7-9.2c0-14.8-12.9-27.8-27.6-27.8c-7.1,0-11.3,1.3-17,5.1c-6.9,4.7-10.1,11-12,23.3c-0.7,5-4.5,8.6-9.1,8.6
		c-4.7,0-9.3-4.5-9.3-9.2c0-10.4-7.5-21.6-17.1-25.8c-4.2-1.8-6.6-2.1-12.3-1.8c-8.2,0.4-13.4,2.6-18.6,7.8
		c-6.8,6.8-7.5,9.4-7.8,29.5c-0.4,19.6,0.6,28.5,4.4,40.5c2.9,9.2,9.2,21.7,14.5,28.7c4.4,5.8,4.5,6.3,2.4,6.3
		c-2.7,0-10.9,4.7-14.2,8.2c-4.8,4.9-7.3,11.3-7.3,18.4c0,7.5,1.3,11.5,5.6,17.5l3.3,4.6l-4.7,3.4c-7.2,5.2-22,20.4-29.4,30.4
		c-8.2,10.9-18.6,30.7-22.8,43.4c-17.3,51.6-7.8,107,25.5,149.6c19.1,24.4,45.2,42.8,74.4,52.5c14.7,4.9,23.9,6.8,39.6,8
		c11.5,1,30.1,0.1,37.2-1.6c1.7-0.5,2.3-0.2,2.3,1c0,1.5,10.5,1.6,121.6,1.6c117,0,121.6-0.1,122.1-1.8c0.4-1.8,0.8-1.8,7.6-0.4
		c11.3,2.2,32.1,1.9,44.7-0.7c48-10,85.1-47.1,95.1-95.1C566.3,576.7,566.6,556.6,564.1,543.7z M390.6,369.9
		c5.9-21.1,22.5-38.2,43.9-45c8.2-2.7,9.1-2.5,8.3,1.3c-2,11-10.4,26-18.8,33.7c-9.2,8.4-21.8,15.2-31.5,16.7l-3.9,0.6L390.6,369.9z
		 M307.5,254.6c-35.6-8.9-57.3-44.2-48.8-79.6c3-12.4,12.5-27.3,22.5-35.2c16.1-12.6,34.7-17.2,54.1-13.2c4.2,0.8,11.5,3.4,16.2,5.6
		c7,3.3,10,5.6,17,12.7c9.4,9.5,14.5,18.2,17.5,30.1c2.5,9.7,1.7,28.2-1.7,37.2c-7.3,19.6-22.9,34.9-41.8,40.9
		C333.4,256.1,316.2,256.8,307.5,254.6z M325.8,594h-6.2h-6.1v-9.5V575h4.5c3.8,0,4.5,0.3,4.9,2.2c0.3,1.3,0.7,4.1,1,6.3
		c0.3,2.2,0.8,5.5,1.2,7.2L325.8,594z M313,500h9.5v9.5v9.5H313h-9.5v-9.5V500H313z M312.5,538v9v9h-9h-9v-9v-9h9H312.5z
		 M288.3,366.9l24.2,16.1v49.1v49l-8.1-0.3l-8.1-0.3l-3.3-8.6c-10.3-26.8-27.7-50.6-49.7-68.2c-5.6-4.5-5.6-4.5-3.6-6.4
		c3-2.7,6.7-10.7,7.4-15.7c1.8-12.8-8.4-28-20.2-30.2c-1.9-0.3-3.4-0.8-3.4-1.1c0-0.2,1.4-2.2,3.2-4.4c2.2-2.7,3.7-3.8,4.7-3.3
		c0.9,0.3,4.1,1.5,7.1,2.6s10,2.8,15.6,3.8l10,1.7L288.3,366.9z M275.5,538v9v9H266h-9.5v-9v-9h9.5H275.5z M266.5,519v-9.5V500h9h9
		v9.5v9.5h-9H266.5z M275.5,584.5V575h9.5h9.5v9.5v9.5H285h-9.5V584.5z M204.6,276.6c1.9,0.4,6.3,1.8,9.9,3.2
		c14.4,5.5,27.5,17,34.3,30c3.8,7.2,7.5,18.8,6.3,19.9c-2.5,2.5-24.1-7.5-32.2-15c-10.4-9.4-18.8-23.5-20.9-34.9l-0.7-3.8
		L204.6,276.6z M60,278.4c0-14.8,0.2-16.4,2-18.4c1.7-2,4.7-3.7,6.6-3.9c0.3-0.1,2,0.4,3.7,1c4,1.4,5.7,4.2,6.5,10.8
		c0.8,6.8,4.8,15.2,9,18.7c11.1,9.4,26.6,9.5,37.1,0.3c5.9-5.2,8.6-10.5,9.6-18.7c1.2-9.3,5.8-13.4,12.6-11.2
		c4.2,1.4,5.9,4.2,6.7,10.9c1.7,14.7,11.9,24.5,26.8,25.8l5.9,0.6l4,8.3c4.4,9,13.5,21.2,19.5,26l3.9,3.1l-3.7,5
		c-2,2.8-5.7,6.9-8.2,9.1l-4.5,4.2h-53.3H90.8l-7-7.3C66.5,324.8,60.1,307.7,60,278.4z M60.5,375.4c2.3-6.8-2.7-6.4,83.8-6.4h78.4
		l2.9,2.9c5.5,5.5,2.6,14.2-5.2,15.6c-1.9,0.3-37.4,0.5-79,0.3c-74.1-0.3-75.7-0.3-77.9-2.3C60.2,382.5,59.3,379.3,60.5,375.4z
		 M172.5,631v17.4v17.4l-7.2,1.4c-11.5,2.1-36.2,1.5-48.5-1.1C60.6,654.3,18.3,612,6.3,555.7c-3.1-14.8-3.1-39.9,0.1-54.7
		c4.2-19.7,10.6-35.2,21.3-51.2c7.8-11.7,26.2-30.3,37.8-38l8.5-5.7l70-0.1h70.1l7.4,4.9c20.4,13.4,37.1,32.4,48.5,55.1
		c2.1,4.1,4.3,9.1,5.1,11.2l1.3,3.8H241h-35.5l-2.1-4.2c-2.9-5.6-12.2-14.6-18.6-18.1c-6.3-3.3-16.5-5.7-25-5.7h-6.3v-14v-14H144
		h-9.5v13.9v13.8l-9.2,0.6c-14.8,0.9-24.6,5.2-33.8,14.8c-6.1,6.3-10.6,15.6-12.2,24.7c-4,23.3,11.4,46.6,34.7,52.7
		c4.4,1.1,11.3,1.5,27.2,1.5h21.3v14v14h9.5h9.5v10.9v11l-6.3,3.1l-6.4,3.1l-25.9-0.3c-29.1-0.3-30-0.5-37.5-8.5
		c-5.5-5.7-7.2-9.8-7.7-18.6l-0.5-7.7h-9.3h-9.4v5.7c0,13.3,4.8,25,14,34.3c9.3,9.4,20.7,14,34.7,14h7.3v14v14h9.5h9.5v-14v-14h7.3
		c8.6,0,16.8-1.9,24-5.7c2.8-1.5,5.5-2.9,6-3.1c0.4-0.2,0.7,3.7,0.7,8.7v9.1H182L172.5,631L172.5,631z M228.5,519v-9.5V500h9.5h9.5
		v9.5v9.5H238H228.5z M237.5,538v9v9h-9h-9v-9v-9h9H237.5z M238.5,584.5V575h9h9v9.5v9.5h-9h-9V584.5z M181.5,547v-9h9.5h9.5v9v9
		H191h-9.5V547z M178.3,481h-5.8v19v19h-5h-5v4.6v4.5l-22.7-0.3c-25.6-0.3-27.1-0.7-34.4-8.5c-5.1-5.3-7.1-9.7-7.7-16.9
		c-0.7-9,1.8-15.5,8.3-22c7.7-7.7,10.2-8.2,38.2-8.3c21-0.1,23.7,0.1,28.5,1.9c2.9,1.1,6.7,3.2,8.3,4.5l3,2.5H178.3z M191.5,519
		v-9.5V500h9h9v9.5v9.5h-9H191.5z M200.5,584.5V575h9.5h9.5v9.5v9.5H210h-9.5V584.5z M209.5,659.5v9.5h-9h-9v-9.5V650h9h9V659.5z
		 M209.5,631v-9v-9h9.5h9.5v9v9H219H209.5z M247.5,659.5v9.5H238h-9.5v-9.5V650h9.5h9.5V659.5z M247.5,631v-9v-9h9.5h9.5v9v9H257
		H247.5z M284.5,659.5v9.5h-9h-9v-9.5V650h9h9V659.5z M294,631h-9.5v-9v-9h9.5h9.5v9v9H294z M322.5,659.5v9.5H313h-9.5v-9.5V650h9.5
		h9.5V659.5z M332,631h-9.5v-9v-9h4.9c4.5,0,5,0.2,5.9,3c0.6,1.6,2.7,5.7,4.6,9l3.5,6H332z M360.2,669h-18.7v-9.5V650h7.1h7.2
		l6.1,5.3c3.4,2.9,8.1,6.8,10.6,8.7c2.5,1.8,4.9,3.7,5.5,4.2C378.5,668.6,370.5,669,360.2,669z M546.2,580.6
		c-8.1,52.6-54.8,91-107.2,88c-47.1-2.7-86.1-36.3-95.7-82.6c-2.6-12.6-2.1-33.4,1.1-46c5.2-20.1,18.6-40.9,35.1-54.3
		c13.2-10.7,33.6-19.8,49.5-22c8.6-1.2,27.5-0.6,36,1.2C518.2,475.9,554.3,527.4,546.2,580.6z"/>
	<path class="st0" d="M322,247h9.5v-4.4v-4.5l5.4-1.1c6.8-1.4,13.7-5.7,17.6-11.1c8.1-11.3,6.2-28.7-4.2-37.5
		c-6.6-5.5-11-6.7-27.1-7.3c-14.8-0.6-14.9-0.6-17.3-3.4c-3.3-3.9-3.1-8.1,0.5-11.8c2.9-2.9,2.9-2.9,15.6-2.9
		c7.1,0,13.5,0.5,14.7,1.1c1.1,0.6,2.6,2.6,3.4,4.5l1.4,3.4h9h9v-3.3c-0.1-7.3-7.4-17.7-15.2-21.8c-2.1-1.1-5.8-2.2-8.3-2.6
		l-4.5-0.6v-4.8V134h-8.8c-4.9,0-9.2,0.3-9.5,0.7c-0.4,0.3-0.7,2.5-0.7,4.9c0,4.2,0,4.2-4.4,4.8c-10.5,1.6-20.3,11.2-22.6,22.1
		c-2.9,14,6.1,28.7,20,32.5c1.9,0.5,9.2,1,16.2,1c12.6,0,12.8,0,16,2.9c2.5,2.2,3.2,3.6,3.2,6.6s-0.7,4.4-3.2,6.6
		c-3.2,2.8-3.5,2.9-14.8,2.9c-13.4,0-16.6-1.1-18.5-6.5l-1.3-3.6l-9.1,0.3l-9,0.3l0.3,3.5c1.2,12,10.7,21.5,24.5,24.4
		c2.5,0.6,2.7,1,2.7,5.1v4.5H322z"/>
	<path class="st0" d="M496.4,502.4c-9.2-8.6-17.2-11.4-32.6-11.4h-10.3v-9.5V472H444h-9.5v9.4v9.4l-12.2,0.4
		c-11.3,0.3-12.8,0.6-18.8,3.4c-34,16.3-32.6,63.6,2.3,77.7c4.8,2,7.6,2.2,36.7,2.7c34.3,0.5,34.6,0.6,41.3,6.9
		c7.1,6.5,9.3,18.3,4.9,26.7c-2.7,5.2-9,10.7-14.1,12.2c-5.7,1.8-56.4,1.5-61.4-0.2c-9.2-3.3-15.7-12.3-15.7-21.9V594H388h-9.5v4
		c0,20.1,15.1,38.2,35,42c2.9,0.5,8.8,1,13.1,1h7.8l0.3,9.2l0.3,9.3l9.3,0.3l9.2,0.3v-9.6V641h8.5c4.6,0,10.8-0.5,13.7-1.1
		c13.2-2.8,24.4-11.6,30.1-23.6c3-6.4,3.2-7.5,3.2-17.8c0-10.5-0.2-11.4-3.4-18c-6.2-12.6-17.9-21.3-31.7-23.5
		c-3.3-0.6-17.8-1-32.4-1c-30.2,0-31.7-0.4-38.3-8c-7.9-9.2-7.7-21.7,0.5-30.6c6.7-7.3,8-7.5,42.4-7.2l30.1,0.3l4.1,2.8
		c6,3.9,9.2,9.3,10.5,17.7l1.1,7h8.8h8.8v-6.3C509.5,520.8,504.8,510.4,496.4,502.4z"/>
</g>
</svg>
