<?xml version="1.0" encoding="utf-8"?>
<!-- Generator: Adobe Illustrator 19.0.0, SVG Export Plug-In . SVG Version: 6.00 Build 0)  -->
<svg version="1.1" id="Layer_1" xmlns="http://www.w3.org/2000/svg" xmlns:xlink="http://www.w3.org/1999/xlink" x="0px" y="0px"
	 viewBox="-29 150 552 494" style="enable-background:new -29 150 552 494;" xml:space="preserve">
<style type="text/css">
	.st0{fill:#014DA1;}
</style>
<g transform="translate(0.000000,494.000000) scale(0.100000,-0.100000)">
	<path class="st0" d="M1261.2,3419.1c-519-45-1011-224-1277-463c-116-104-215-260-252-396c-21-74-21-90-21-1585
		c0-1668-3-1579,65-1720c151-315,556-560,1124-679c187-40,349-57,586-63c387-10,722,35,1038,137l119,38l78-33c114-49,250-90,380-117
		c153-30,479-33,635-4c727,132,1299,682,1453,1396c137,632-87,1310-571,1729c-302,261-649,407-1049,442l-138,12v182
		c0,190-8,242-53,354c-35,88-93,168-191,267c-272,274-746,455-1321,504C1728.2,3431.1,1400.2,3431.1,1261.2,3419.1z M1791.2,3060.1
		c456-35,859-163,1096-351c77-61,127-122,161-195c21-46,25-66,20-110c-16-151-164-312-392-427c-344-172-876-257-1350-217
		c-366,32-708,125-916,251c-197,119-285,207-320,320c-27,85-24,126,12,199c92,183,364,348,731,445
		C1139.2,3055.1,1468.2,3084.1,1791.2,3060.1z M155.2,1736.1c216-142,569-262,936-317c139-21,188-24,475-23c176,0,348,5,383,10
		c34,6,62,9,62,7s-18-27-39-56c-45-60-137-213-165-275c-13-28-27-44-44-49c-43-10-482,5-602,22c-422,59-764,194-950,375
		c-104,101-132,157-138,274c-4,73-2,87,9,80C90.2,1779.1,123.2,1758.1,155.2,1736.1z M3684.2,1725.1c289-51,550-188,762-400
		c208-207,332-437,397-733c31-142,31-424,0-569c-60-277-182-508-371-705c-208-217-452-354-751-421c-139-31-442-31-582,1
		c-190,42-376,121-528,226c-99,68-257,221-335,325c-118,157-212,367-257,574c-31,145-31,427,0,569c64,293,189,526,392,729
		c150,151,293,246,482,323c104,42,262,82,373,95C3370.2,1752.1,3572.2,1745.1,3684.2,1725.1z M161.2,1014.1c188-120,457-222,742-280
		c185-37,347-55,564-61l201-6l-13-75c-8-42-17-122-20-179l-7-103h-114c-235,0-537,45-765,114c-237,72-417,167-538,286
		c-104,101-132,157-138,274c-4,74-2,87,9,80C90.2,1060.1,125.2,1037.1,161.2,1014.1z M186.2,279.1c241-146,587-257,956-304
		c68-9,215-19,325-22l201-6l13-56c7-30,28-101,47-156s37-110,40-122l5-23h-186c-597,0-1123,153-1376,400c-104,101-132,157-138,275
		l-5,89l29-19C113.2,325.1,153.2,300.1,186.2,279.1z M161.2-425.9c242-155,591-269,987-320c141-19,566-25,733-11l96,8l34-48
		c19-26,81-95,137-152c57-58,102-105,100-106c-6-5-174-36-282-52c-170-25-619-25-790,0c-536,79-944,273-1070,507
		c-24,46-30,70-33,144c-4,74-2,87,9,80C90.2-379.9,125.2-402.9,161.2-425.9z"/>
</g>
</svg>
