<?xml version="1.0" encoding="UTF-8"?>
<svg width="103px" height="107px" viewBox="0 0 103 107" version="1.1" xmlns="http://www.w3.org/2000/svg" xmlns:xlink="http://www.w3.org/1999/xlink">
    <!-- Generator: Sketch 46.2 (44496) - http://www.bohemiancoding.com/sketch -->
    <title>preparazione@2x</title>
    <desc>Created with Sketch.</desc>
    <defs></defs>
    <g id="home" stroke="none" stroke-width="1" fill="none" fill-rule="evenodd">
        <g id="iPhone-7" transform="translate(-128.000000, -822.000000)" fill="#236961">
            <g id="preparazione" transform="translate(130.000000, 822.000000)">
                <g id="cuoco-green-copy">
                    <g id="Page-1">
                        <path d="M82.9336043,90.0406698 L28.2077319,90.0406698 C26.8950298,90.0406698 26.018434,89.248217 26.018434,88.0615189 L26.018434,47.4938774 C17.0442851,44.9203868 10.9146894,37.4019906 10.9146894,28.6949151 C10.9146894,16.6238774 22.9525404,6.92623585 36.5266255,9.30161321 C40.6838809,3.56227358 47.9092213,0.000198113208 55.5706681,0.000198113208 C63.2321149,0.000198113208 70.4552638,3.56227358 74.6147106,9.30161321 C75.9274128,9.1035 77.2423064,8.90538679 78.5550085,8.90538679 C90.5950511,8.90538679 100.445796,17.8105755 100.445796,28.6949151 C100.445796,37.2038774 94.3162,44.7242547 85.3420511,47.4938774 L85.3420511,88.0615189 C85.1229021,89.248217 84.2463064,90.0406698 82.9336043,90.0406698 L82.9336043,90.0406698 Z M30.3970298,86.0823679 L80.7443064,86.0823679 L80.7443064,45.9109528 C80.7443064,44.9203868 81.4017532,44.1299151 82.4953064,43.9318019 C90.3759021,42.1507642 95.8480511,35.819066 95.8480511,28.6949151 C95.8480511,19.9878396 87.9674553,12.8636887 78.3358596,12.8636887 C77.0231574,12.8636887 75.4913064,13.0618019 73.9594553,13.4560472 C73.0828596,13.6541604 71.9893064,13.257934 71.5510085,12.4674623 C68.265966,7.32246226 62.1385617,3.9585 55.3515191,3.9585 C48.7836255,3.9585 42.4370723,7.12434906 39.1520298,12.4674623 C38.7159234,13.257934 37.6201787,13.6541604 36.7457745,13.4560472 C25.3609872,10.6864245 15.0741362,18.7991604 15.0741362,28.6949151 C15.0741362,36.0171792 20.5462851,42.3488774 28.4268809,43.9318019 C29.3012851,44.1299151 30.1778809,44.9203868 30.1778809,45.9109528 L30.1778809,86.0823679 L30.3970298,86.0823679 Z" id="Fill-1"></path>
                        <path d="M50.0978617,78.1671509 C48.7851596,78.1671509 47.9085638,77.3746981 47.9085638,76.188 L47.9085638,56.3984717 C47.9085638,55.2117736 48.7851596,54.4193208 50.0978617,54.4193208 C51.4105638,54.4193208 52.2871596,55.2117736 52.2871596,56.3984717 L52.2871596,76.188 C52.2871596,77.3746981 51.4105638,78.1671509 50.0978617,78.1671509" id="Fill-3"></path>
                        <path d="M61.042817,78.1671509 C59.7301149,78.1671509 58.8535191,77.3746981 58.8535191,76.188 L58.8535191,56.3984717 C58.8535191,55.2117736 59.7301149,54.4193208 61.042817,54.4193208 C62.3555191,54.4193208 63.2321149,55.2117736 63.2321149,56.3984717 L63.2321149,76.188 C63.2321149,77.3746981 62.3555191,78.1671509 61.042817,78.1671509" id="Fill-5"></path>
                        <path d="M39.1524681,78.1671509 C37.839766,78.1671509 36.9631702,77.3746981 36.9631702,76.188 L36.9631702,60.3567736 C36.9631702,59.1700755 37.839766,58.3776226 39.1524681,58.3776226 C40.4651702,58.3776226 41.341766,59.1700755 41.341766,60.3567736 L41.341766,76.188 C41.341766,77.3746981 40.4651702,78.1671509 39.1524681,78.1671509" id="Fill-7"></path>
                        <path d="M71.9882106,78.1671509 C70.6755085,78.1671509 69.7989128,77.3746981 69.7989128,76.188 L69.7989128,60.3567736 C69.7989128,59.1700755 70.6755085,58.3776226 71.9882106,58.3776226 C73.3009128,58.3776226 74.1775085,59.1700755 74.1775085,60.3567736 L74.1775085,76.188 C74.1775085,77.3746981 73.3009128,78.1671509 71.9882106,78.1671509" id="Fill-9"></path>
                        <path d="M82.9336043,84.1040094 L28.2077319,84.1040094 C26.8950298,84.1040094 26.018434,83.3115566 26.018434,82.1248585 C26.018434,80.9381604 26.8950298,80.1457075 28.2077319,80.1457075 L82.9336043,80.1457075 C84.2463064,80.1457075 85.1229021,80.9381604 85.1229021,82.1248585 C85.1229021,83.3115566 84.2463064,84.1040094 82.9336043,84.1040094" id="Fill-11"></path>
                        <path d="M49.8052979,79.5202642 C49.8052979,72.5248868 43.7348723,65.0342264 34.6971702,65.0342264 C30.2506383,65.0342264 27.1694043,66.6706415 25.1641915,68.3863019 C23.1589787,66.6706415 20.0799362,65.0342264 15.6312128,65.0342264 C6.59351064,65.0342264 0.523085106,72.5248868 0.523085106,79.5202642 C0.523085106,89.2337547 19.3216809,101.286962 23.0888511,103.604887 C23.7046596,103.981302 24.4212766,104.181396 25.1641915,104.181396 C25.9049149,104.181396 26.6215319,103.981302 27.2351489,103.606868 C31.0088936,101.286962 49.8052979,89.2337547 49.8052979,79.5202642" id="Fill-13" stroke="#FFFFFF" stroke-width="4"></path>
                    </g>
                </g>
            </g>
        </g>
    </g>
</svg>