<?xml version="1.0" encoding="UTF-8"?>
<svg width="34px" height="34px" viewBox="0 0 34 34" version="1.1" xmlns="http://www.w3.org/2000/svg" xmlns:xlink="http://www.w3.org/1999/xlink">
    <!-- Generator: Sketch 46.2 (44496) - http://www.bohemiancoding.com/sketch -->
    <title>Twittervector</title>
    <desc>Created with Sketch.</desc>
    <defs></defs>
    <g id="home" stroke="none" stroke-width="1" fill="none" fill-rule="evenodd">
        <g id="iPhone-7" transform="translate(-96.000000, -6639.000000)">
            <g id="Twitter" transform="translate(97.000000, 6640.000000)">
                <circle id="Stroke" stroke="#236961" stroke-width="2" cx="16" cy="16" r="16"></circle>
                <path d="M19.3385827,13.4070918 C19.3385827,13.4070918 19.3385827,13.3065852 19.3385827,13.4070918 C18.8267717,12.904559 18.2125984,12.7035459 17.5984252,12.8040524 L17.5984252,12.8040524 L17.5984252,12.8040524 C18.2125984,12.7035459 18.519685,12.5025328 18.6220472,12.4020262 C18.6220472,12.3015197 18.6220472,12.2010131 18.519685,12.2010131 C18.2125984,12.2010131 17.9055118,12.3015197 17.7007874,12.4020262 C18.007874,12.2010131 18.1102362,12.1005066 18.1102362,12 C17.8031496,12 17.496063,12.2010131 17.0866142,12.5025328 C17.1889764,12.3015197 17.2913386,12.2010131 17.1889764,12.1005066 C16.984252,12.2010131 16.8818898,12.3015197 16.7795276,12.5025328 C16.4724409,12.8040524 16.2677165,13.0050656 16.1653543,13.3065852 L16.1653543,13.3065852 C15.7559055,14.0101311 15.4488189,14.6131704 15.2440945,15.3167163 L15.1417323,15.3167163 C14.9370079,15.0151967 14.6299213,14.713677 14.2204724,14.5126639 C13.8110236,14.2111442 13.2992126,14.0101311 12.6850394,13.7086114 C12.0708661,13.4070918 11.4566929,13.1055721 10.7401575,12.904559 C10.7401575,13.6081049 11.0472441,14.2111442 11.7637795,14.6131704 L11.7637795,14.6131704 C11.5590551,14.6131704 11.2519685,14.6131704 11.0472441,14.713677 C11.0472441,15.3167163 11.5590551,15.8192491 12.480315,16.0202622 L12.480315,16.0202622 C12.1732283,16.0202622 11.8661417,16.1207688 11.5590551,16.3217819 C11.8661417,16.9248212 12.3779528,17.1258343 13.1968504,17.1258343 C13.0944882,17.2263409 12.8897638,17.3268474 12.8897638,17.3268474 C12.7874016,17.427354 12.6850394,17.6283671 12.7874016,17.8293802 C12.992126,18.1308999 13.1968504,18.2314064 13.7086614,18.2314064 L13.7086614,18.2314064 L13.7086614,18.2314064 C12.992126,18.9349523 12.0708661,19.3369785 11.0472441,19.236472 L11.0472441,19.236472 C10.4330709,19.236472 9.71653543,18.9349523 9,18.331913 C9.71653543,19.3369785 10.7401575,20.141031 11.9685039,20.6435638 C13.4015748,21.04559 14.8346457,21.1460965 16.1653543,20.7440703 L16.1653543,20.7440703 C17.496063,20.3420441 18.7244094,19.5379917 19.6456693,18.4324196 C20.0551181,17.8293802 20.3622047,17.2263409 20.4645669,16.6233016 C21.1811024,16.6233016 21.6929134,16.4222884 22,16.0202622 L22,16.0202622 C21.7952756,16.1207688 21.2834646,16.1207688 20.5669291,15.9197557 L20.5669291,15.9197557 L20.5669291,15.9197557 C21.2834646,15.8192491 21.7952756,15.618236 21.8976378,15.2162098 C21.3858268,15.4172229 20.8740157,15.4172229 20.3622047,15.2162098 C20.2598425,14.5126639 19.9527559,13.9096246 19.3385827,13.4070918 L19.3385827,13.4070918 Z" fill="#236961"></path>
            </g>
        </g>
    </g>
</svg>