<?xml version="1.0" encoding="UTF-8"?>
<svg width="82px" height="94px" viewBox="0 0 82 94" version="1.1" xmlns="http://www.w3.org/2000/svg" xmlns:xlink="http://www.w3.org/1999/xlink">
    <!-- Generator: Sketch 46.2 (44496) - http://www.bohemiancoding.com/sketch -->
    <title>valori nutrizionali@2x</title>
    <desc>Created with Sketch.</desc>
    <defs>
        <polygon id="path-1" points="40.5655943 93.9816533 81.1303158 93.9816533 81.1303158 0.24497114 40.5655943 0.24497114 0.000872859719 0.24497114 0.000872859719 93.9816533"></polygon>
    </defs>
    <g id="Symbols" stroke="none" stroke-width="1" fill="none" fill-rule="evenodd">
        <g id="valori-nutrizionali-GREEN" transform="translate(0.000000, -1.000000)">
            <g id="valori-nutrizionali">
                <g id="Group-3" transform="translate(0.000000, 0.773771)">
                    <mask id="mask-2" fill="white">
                        <use xlink:href="#path-1"></use>
                    </mask>
                    <g id="Clip-2"></g>
                    <path d="M71.4660579,93.9816533 L9.66382105,93.9816533 C4.33653158,93.9816533 0.000873684211,90.055437 0.000873684211,85.2292569 L0.000873684211,8.99736755 C-0.00131052632,4.17118738 4.33653158,0.24497114 9.66382105,0.24497114 L71.4660579,0.24497114 C76.7955316,0.24497114 81.1311895,4.17118738 81.1311895,8.99736755 L81.1311895,85.2292569 C81.1311895,90.055437 76.7955316,93.9816533 71.4660579,93.9816533 L71.4660579,93.9816533 Z M9.66382105,4.84962173 C7.14105789,4.84962173 5.0879,6.7108658 5.0879,8.99538961 L5.0879,85.2292569 C5.0879,87.5157586 7.14105789,89.3730468 9.66382105,89.3730468 L71.4660579,89.3730468 C73.9910053,89.3730468 76.0441632,87.5157586 76.0441632,85.2292569 L76.0441632,8.99736755 C76.0441632,6.7108658 73.9910053,4.85159967 71.4660579,4.85159967 L9.66382105,4.85159967 L9.66382105,4.84962173 Z" id="Fill-1" fill="#236961" mask="url(#mask-2)"></path>
                </g>
                <polygon id="Fill-4" fill="#236961" points="10.9363421 31.5027951 70.1939737 31.5027951 70.1939737 29.6593525 10.9363421 29.6593525"></polygon>
                <polygon id="Fill-5" fill="#236961" points="10.9363421 41.8039206 70.1939737 41.8039206 70.1939737 39.960478 10.9363421 39.960478"></polygon>
                <polygon id="Fill-6" fill="#236961" points="10.9363421 62.4081497 70.1939737 62.4081497 70.1939737 60.5647071 10.9363421 60.5647071"></polygon>
                <polygon id="Fill-7" fill="#236961" points="10.9363421 72.7092752 70.1939737 72.7092752 70.1939737 70.8658326 10.9363421 70.8658326"></polygon>
                <polygon id="Fill-8" fill="#236961" points="10.9363421 83.0104007 70.1939737 83.0104007 70.1939737 81.1669582 10.9363421 81.1669582"></polygon>
                <polygon id="Fill-9" fill="#236961" points="10.9363421 38.1704399 21.7831316 38.1704399 21.7831316 33.5638114 10.9363421 33.5638114"></polygon>
                <polygon id="Fill-10" fill="#236961" points="64.7705789 38.0339619 70.1961579 38.0339619 70.1961579 33.4293113 64.7705789 33.4293113"></polygon>
                <polygon id="Fill-11" fill="#236961" points="62.9096316 58.6381909 70.1961579 58.6381909 70.1961579 54.0315624 62.9096316 54.0315624"></polygon>
                <polygon id="Fill-12" fill="#236961" points="65.8211842 68.9393164 70.1961579 68.9393164 70.1961579 64.3326879 65.8211842 64.3326879"></polygon>
                <polygon id="Fill-14" fill="#236961" points="10.9363421 48.4379404 26.3175526 48.4379404 26.3175526 43.8332898 10.9363421 43.8332898"></polygon>
                <polygon id="Fill-15" fill="#236961" points="65.8211842 79.240442 70.1961579 79.240442 70.1961579 74.6338134 65.8211842 74.6338134"></polygon>
                <polygon id="Fill-16" fill="#236961" points="65.8211842 48.3370653 70.1961579 48.3370653 70.1961579 43.7304368 65.8211842 43.7304368"></polygon>
                <polygon id="Fill-17" fill="#236961" points="10.9363421 58.7133527 23.2421842 58.7133527 23.2421842 54.1067242 10.9363421 54.1067242"></polygon>
                <polygon id="Fill-18" fill="#236961" points="10.9363421 68.9828312 30.3648947 68.9828312 30.3648947 64.3762026 10.9363421 64.3762026"></polygon>
                <polygon id="Fill-19" fill="#236961" points="10.9363421 79.2542876 22.4296579 79.2542876 22.4296579 74.647659 10.9363421 74.647659"></polygon>
                <polygon id="Fill-20" fill="#236961" points="10.9363421 52.1070241 70.1939737 52.1070241 70.1939737 50.2635815 10.9363421 50.2635815"></polygon>
                <g id="Group-25" transform="translate(10.921053, 8.685542)" fill="#236961">
                    <path d="M12.3739895,4.57706122 C9.90146316,4.57706122 9.16756842,5.30296619 8.36596316,5.30296619 C7.56435789,5.30296619 6.82827895,4.57706122 4.35793684,4.57706122 C1.88541053,4.57706122 0.0157263158,6.91696743 0.0157263158,9.4962047 C0.0157263158,12.0774199 2.82025263,18.1279466 5.89343684,18.1279466 C7.49664737,18.1279466 7.89854211,17.7640052 8.36596316,17.7640052 C8.83338421,17.7640052 9.23309474,18.1279466 10.8363053,18.1279466 C13.9094895,18.1279466 16.7162,12.0774199 16.7162,9.4962047 C16.7162,6.91696743 14.8465158,4.57706122 12.3739895,4.57706122" id="Fill-21"></path>
                    <path d="M8.36902105,4.62591641 C7.84481053,4.62591641 7.40141579,4.2639529 7.35773158,3.78331282 C7.26381053,2.80818707 7.66133684,0.774861987 9.82588947,0.0568687899 C10.3522842,-0.11916811 10.9354684,0.126096784 11.1298632,0.602780973 C11.3242579,1.0814431 11.0534158,1.6095538 10.5248368,1.7855907 C9.26454737,2.20491455 9.38467895,3.61123181 9.38467895,3.62705535 C9.43273158,4.13340868 9.01773158,4.57844578 8.45857368,4.62393847 C8.42799474,4.62591641 8.39741579,4.62591641 8.36902105,4.62591641" id="Fill-23"></path>
                </g>
            </g>
        </g>
    </g>
</svg>