<?xml version="1.0" encoding="utf-8"?>
<!-- Generator: Adobe Illustrator 19.0.0, SVG Export Plug-In . SVG Version: 6.00 Build 0)  -->
<svg version="1.1" id="Layer_1" xmlns="http://www.w3.org/2000/svg" xmlns:xlink="http://www.w3.org/1999/xlink" x="0px" y="0px"
	 viewBox="-223 338 165 118" style="enable-background:new -223 338 165 118;" xml:space="preserve">
<style type="text/css">
	.st0{fill:#FFFFFF;}
</style>
<title>challenge-logovector</title>
<desc>Created with Sketch.</desc>
<g id="holder-postworkout">
	<g id="Food2Train-holder-filtrata" transform="translate(-1600.000000, -5457.000000)">
		<g id="challenge-logo" transform="translate(1603.000000, 5460.000000)">
			<g id="Page-1-Copy-8">
				<path class="st0" d="M-68.6,452.1l-4.5-2.1c4.6-10.1,7.1-21.2,7.1-32.3c0-42.6-34.6-77.2-77.2-77.2s-77.2,34.6-77.2,77.2
					c0,11.1,2.4,22.2,7.1,32.2l-4.5,2.1c-4.9-10.7-7.5-22.6-7.5-34.3c0-21.8,8.6-42.4,24.2-58c15.6-15.6,36.2-24.2,58-24.2
					c21.8,0,42.4,8.6,58,24.2s24.2,36.2,24.2,58C-61.1,429.5-63.7,441.4-68.6,452.1z"/>
			</g>
			<g id="Fill-1">
				<path class="st0" d="M-112.9,424l-10.1-16.8c0.4-3.1,0.9-6.1,1.5-9.2l12.5,23L-112.9,424z M-127.6,421h-8.3v-5.9
					c0-4.9-1.4-9.5-4.1-13.6l7.2-11.5c2.9,0.6,5.9,1.4,8.8,2.5C-126.3,401.9-127.5,411.5-127.6,421L-127.6,421z M-136,447v-21h8
					c0.2,6.1,0.8,12.2,2,18.3C-129.3,445.6-132.7,446.5-136,447L-136,447z M-141,421h-16.5c0-9.5-1.2-19-3.5-28.5
					c2.8-1.1,5.6-1.9,8.5-2.5c0,0,7.6,12.7,7.6,12.7c2.6,3.6,3.9,7.9,3.9,12.3V421z M-141,447.9c-6.3,0.3-12.7-0.7-19-3.2
					c1.1-6.2,1.8-12.5,2-18.8h12.3c0,0-0.4,0.9-0.6,1.3c-1.9,3.5-6.2,5.2-6.3,5.3c-1.1,0.4-1.7,1.7-1.3,2.8c0.5,1.3,1.9,1.5,2.8,1.3
					c0.2,0,1.5-0.6,3.1-1.6c-0.1,1.4,0,2.6,0.2,3.6c0.5,2.3,1.7,3.1,2.6,3.4c0.8,0.3,2.2,0,2.8-1.4c0.4-1-0.1-2.1-1-2.6
					c-2.5-2,2.1-11.2,2.2-11.5V447.9z M-138,389.2l-5,7.8l-5-7.8C-144.7,388.9-141.3,388.9-138,389.2L-138,389.2z M-173.1,424
					l-3.9-3l12.5-23c0.6,3,1.1,6.1,1.5,9.2L-173.1,424z M-104.3,420.2l-16.2-29.7c-0.1-0.3-0.9-0.9-1.1-1c-14.2-6-28.7-6-42.9,0
					c-0.1,0-0.7,0.5-1.1,1l-16.2,29.7c-0.5,0.9-0.3,2.1,0.6,2.8l7.3,5.7c1.9,0.9,2.9-0.1,3.2-0.6l8.5-14.1c0.7,10.5,0.1,21-2,31.4
					c-0.2,1,0.3,2,1.3,2.4c6.6,2.8,13.3,4.2,19.9,4.2s13.3-1.4,19.9-4.2c0.9-0.4,1.5-1.4,1.3-2.4c-2.1-10.4-2.7-20.9-2-31.4
					l8.5,14.1c0.3,0.5,1.7,1.5,3.2,0.6l7.3-5.7C-104,422.3-103.8,421.1-104.3,420.2L-104.3,420.2z"/>
			</g>
		</g>
	</g>
</g>
</svg>
