<?xml version="1.0" encoding="utf-8"?>
<!-- Generator: Adobe Illustrator 19.0.0, SVG Export Plug-In . SVG Version: 6.00 Build 0)  -->
<svg version="1.1" id="Layer_1" xmlns="http://www.w3.org/2000/svg" xmlns:xlink="http://www.w3.org/1999/xlink" x="0px" y="0px"
	 viewBox="-223 338 165 118" style="enable-background:new -223 338 165 118;" xml:space="preserve">
<style type="text/css">
	.st0{fill:#FFFFFF;}
</style>
<title>enduring-logovector</title>
<desc>Created with Sketch.</desc>
<g id="holder-postworkout">
	<g id="Food2Train-holder-filtrata" transform="translate(-1114.000000, -5468.000000)">
		<g id="enduring-logo" transform="translate(1117.000000, 5471.000000)">
			<g id="Page-1-Copy-6">
				<path class="st0" d="M-68.6,452.1l-4.5-2.1c4.6-10.1,7.1-21.2,7.1-32.3c0-42.6-34.6-77.2-77.2-77.2s-77.2,34.6-77.2,77.2
					c0,11.1,2.4,22.2,7.1,32.2l-4.5,2.1c-4.9-10.7-7.5-22.6-7.5-34.3c0-21.8,8.6-42.4,24.2-58c15.6-15.6,36.2-24.2,58-24.2
					c21.8,0,42.4,8.6,58,24.2s24.2,36.2,24.2,58C-61.1,429.5-63.7,441.4-68.6,452.1z"/>
			</g>
			<g id="Page-1" transform="translate(44.000000, 47.000000)">
				<g id="Group-3" transform="translate(36.000000, 0.000000)">
					<g id="Fill-1">
						<path class="st0" d="M-215.5,342c1.9,0,3.5,1.6,3.5,3.5c0,1.9-1.6,3.5-3.5,3.5c-1.9,0-3.5-1.6-3.5-3.5
							C-218.9,343.5-217.4,342-215.5,342 M-215.5,352.9c4.1,0,7.4-3.3,7.4-7.4c0-4.1-3.3-7.4-7.4-7.4c-4.1,0-7.4,3.3-7.4,7.4
							C-222.9,349.6-219.6,352.9-215.5,352.9"/>
					</g>
				</g>
				<g id="Group-6" transform="translate(0.000000, 36.000000)">
					<g id="Fill-4">
						<path class="st0" d="M-210.5,359.1c-4.8,0-8.6-3.9-8.6-8.6c0-4.8,3.9-8.6,8.6-8.6c4.8,0,8.6,3.9,8.6,8.6
							C-201.9,355.3-205.8,359.1-210.5,359.1 M-210.5,338.1c-6.9,0-12.5,5.6-12.5,12.5c0,6.9,5.6,12.5,12.5,12.5
							c6.9,0,12.5-5.6,12.5-12.5C-198.1,343.6-203.7,338.1-210.5,338.1"/>
					</g>
				</g>
				<g id="Group-9" transform="translate(46.000000, 36.000000)">
					<g id="Fill-7">
						<path class="st0" d="M-210.5,359.1c-4.8,0-8.6-3.9-8.6-8.6c0-4.8,3.9-8.6,8.6-8.6c4.8,0,8.6,3.9,8.6,8.6
							C-201.9,355.3-205.7,359.1-210.5,359.1 M-210.5,338c-6.9,0-12.5,5.6-12.5,12.5c0,6.9,5.6,12.5,12.5,12.5
							c6.9,0,12.5-5.6,12.5-12.5C-198,343.6-203.6,338-210.5,338"/>
					</g>
				</g>
				<g id="Fill-10">
					<path class="st0" d="M-188.8,362.4l-4.1,5.4c-0.6,0.8-0.5,2.1,0.4,2.7l5.4,3.9c0.5,0.3,0.8,0.9,0.8,1.4l0.9,13.6
						c0,2.2-1,2.7-1.9,2.7c-1,0-1.9-0.8-2-1.8l-0.8-12.4c0-0.6-0.3-1.1-0.8-1.4l-8-5.7c-1.4-0.8-3.3-3.7-1.2-6.5l6.6-8.6
						c0.8-1.1,3-3,5.4-1.3l9.5,9.6c0.4,0.4,1,0.6,1.6,0.6l10-0.8c1.1-0.1,2,0.7,2.1,1.8c0,0.5-0.1,1.8-1.8,2.1
						c0,0-11.3,0.8-12.1,0.9c-0.5,0-1-0.2-1.4-0.6l-5.5-5.8C-186.2,361.8-187.8,361.3-188.8,362.4L-188.8,362.4z M-183.1,370.6
						c1.1,1.2,2.7,1.8,4.3,1.8c0.1,0,12.3-0.9,12.3-0.9c4.6-0.6,5.6-4.1,5.4-6.2c-0.2-2.4-1.8-5.5-6.4-5.3l-9.1,0.7l-9-9.1
						c-0.1-0.1-2-1.5-4.6-1.5c-2.6,0-5.1,1.3-6.7,3.4l-6.6,8.6c-4,5.7,0,11,2.1,11.9l7.2,5.1l0.8,11.5c0.2,3,2.8,5.4,5.9,5.4
						c3,0,5.9-2.3,5.9-6.8l-0.9-13.6c-0.1-1.7-1-3.3-2.4-4.3l-3.8-2.8l1.5-2L-183.1,370.6z"/>
				</g>
			</g>
		</g>
	</g>
</g>
</svg>
