<?xml version="1.0" encoding="UTF-8"?>
<svg width="165px" height="118px" viewBox="0 0 165 118" version="1.1" xmlns="http://www.w3.org/2000/svg" xmlns:xlink="http://www.w3.org/1999/xlink">
    <!-- Generator: Sketch 46.2 (44496) - http://www.bohemiancoding.com/sketch -->
    <title>enduring-logovector</title>
    <desc>Created with Sketch.</desc>
    <defs></defs>
    <g id="holder-postworkout" stroke="none" stroke-width="1" fill="none" fill-rule="evenodd">
        <g id="Food2Train-holder-filtrata" transform="translate(-1114.000000, -5468.000000)">
            <g id="enduring-logo" transform="translate(1117.000000, 5471.000000)">
                <path d="M7.28561721,112.990063 C2.48549027,102.548785 0,91.1916738 0,79.6998607 C0,35.9778057 35.9778057,0 79.6998607,0 C123.421916,0 159.399721,35.9778057 159.399721,79.6998607 C159.399721,91.2080195 156.907192,102.580879 152.093821,113.034208" id="Page-1-Copy-6" stroke="#FFFFFF" stroke-width="5"></path>
                <g id="Page-1" stroke-width="1" fill-rule="evenodd" transform="translate(44.000000, 47.000000)" fill="#FFFFFF">
                    <g id="Group-3" transform="translate(36.000000, 0.000000)">
                        <path d="M7.51396262,3.99531308 C9.42064486,3.99531308 10.9765794,5.55138785 10.9765794,7.45792991 C10.9765794,9.36447196 9.42064486,10.9205467 7.51396262,10.9205467 C5.60742056,10.9205467 4.05148598,9.36447196 4.05148598,7.45792991 C4.05148598,5.53736916 5.60742056,3.99531308 7.51396262,3.99531308 M7.51396262,14.8738178 C11.6074206,14.8738178 14.9298505,11.5513879 14.9298505,7.45792991 C14.9298505,3.36447196 11.6074206,0.0420420561 7.51396262,0.0420420561 C3.42064486,0.0420420561 0.0982149533,3.36447196 0.0982149533,7.45792991 C0.0982149533,11.5513879 3.42064486,14.8738178 7.51396262,14.8738178" id="Fill-1"></path>
                    </g>
                    <g id="Group-6" transform="translate(0.000000, 36.000000)">
                        <path d="M12.4726503,21.1338251 C7.71855191,21.1338251 3.8660929,17.2677049 3.8660929,12.5272678 C3.8660929,7.7731694 7.73221311,3.92071038 12.4726503,3.92071038 C17.2267486,3.92071038 21.0792077,7.78696721 21.0792077,12.5272678 C21.0792077,17.2677049 17.2130874,21.1338251 12.4726503,21.1338251 M12.4726503,0.0545901639 C5.58740437,0.0545901639 -2.73224044e-05,5.64215847 -2.73224044e-05,12.5272678 C-2.73224044e-05,19.4125137 5.58740437,25.000082 12.4726503,25.000082 C19.3578962,25.000082 24.9453279,19.4125137 24.9453279,12.5272678 C24.9453279,5.64215847 19.344235,0.0545901639 12.4726503,0.0545901639" id="Fill-4"></path>
                    </g>
                    <g id="Group-9" transform="translate(46.000000, 36.000000)">
                        <path d="M12.5,21.125295 C7.7354874,21.125295 3.87458927,17.250727 3.87458927,12.4999315 C3.87458927,7.73544504 7.74917853,3.87456805 12.5,3.87456805 C17.2645126,3.87456805 21.1254107,7.74927301 21.1254107,12.4999315 C21.1391019,17.250727 17.2645126,21.125295 12.5,21.125295 M12.5,0 C5.61336254,0 0,5.59977766 0,12.4999315 C0,19.4002223 5.59967141,25 12.5,25 C19.4001917,25 25,19.4002223 25,12.4999315 C25,5.59977766 19.4001917,0 12.5,0" id="Fill-7"></path>
                    </g>
                    <path d="M34.2246922,24.3925067 L30.1424658,29.8364555 C29.4993754,30.6845079 29.6811183,31.8881951 30.5478924,32.5173952 L35.9023194,36.4293785 C36.3636669,36.7713351 36.6572517,37.2911091 36.6852121,37.8519179 L37.5659665,51.4481118 C37.5659665,53.6501754 36.6013308,54.1153732 35.6366951,54.1153732 C34.6021583,54.1153732 33.7353842,53.3220339 33.6794633,52.3098424 L32.8686101,39.8763009 C32.8266694,39.3018139 32.5330847,38.7820398 32.0577569,38.4400833 L24.1030077,32.7772822 C22.7469256,32.0249777 20.8176543,29.1115076 22.9286686,26.2390723 L29.4993754,17.6491228 C30.2962483,16.5411835 32.491144,14.6262266 34.8817628,16.363366 L44.3883173,25.9928635 C44.7937439,26.4032114 45.3669332,26.6220636 45.9541028,26.5810288 L55.935985,25.8287244 C57.0124625,25.7466548 57.9631179,26.5536723 58.0469993,27.6068986 C58.08894,28.1266726 57.9491377,29.4397859 56.2295698,29.6859946 C56.2295698,29.6859946 44.9055857,30.534047 44.1646337,30.58876 C43.6473653,30.5750818 43.1440771,30.3562296 42.7805912,29.9869164 L37.2444212,24.2283675 C36.8389946,23.7906631 35.2452487,23.3119239 34.2246922,24.3925067 L34.2246922,24.3925067 Z M39.9146446,32.613143 C41.0330628,33.7757954 42.5988482,34.4323521 44.2205546,34.4323521 C44.3184162,34.4323521 56.5371348,33.5159084 56.5371348,33.5159084 C61.108669,32.9550996 62.1851465,29.4534642 61.9754431,27.2922985 C61.7377793,24.8575676 60.1719938,21.8346714 55.6144398,21.9714541 L46.5552525,22.6553672 L37.5240258,13.5182872 C37.4261642,13.4225394 35.4968928,12 32.9524915,12 C30.3102285,12 27.8077679,13.2720785 26.2839231,15.3785311 L19.7132163,23.9684805 C15.6869109,29.6859946 19.755157,35.0068391 21.7683097,35.9096045 L28.9541465,41.0389533 L29.7090788,52.5697294 C29.904802,55.6063039 32.5191044,58 35.6087347,58 C38.6005033,58 41.4804301,55.71573 41.4804301,51.2292596 L40.5996758,37.6330657 C40.4878339,35.936961 39.6350401,34.377639 38.2370174,33.3654475 L34.4483758,30.58876 L35.9722206,28.564377 L39.9146446,32.613143 Z" id="Fill-10"></path>
                </g>
            </g>
        </g>
    </g>
</svg>