<?xml version="1.0" encoding="UTF-8"?>
<svg width="330px" height="174px" viewBox="0 0 330 174" version="1.1" xmlns="http://www.w3.org/2000/svg" xmlns:xlink="http://www.w3.org/1999/xlink">
    <!-- Generator: Sketch 44.1 (41455) - http://www.bohemiancoding.com/sketch -->
    <title>food2-train-logo-claim bianco</title>
    <desc>Created with Sketch.</desc>
    <defs>
        <polygon id="path-1" points="70.550019 0.00509708738 0.0826651282 0.00509708738 0.0826651282 95.2253172 70.550019 95.2253172 70.550019 0.00509708738"></polygon>
        <polygon id="path-3" points="0.548441538 22.0873786 238.997447 22.0873786 238.997447 1.02519417 0.548441538 1.02519417"></polygon>
    </defs>
    <g id="home" stroke="none" stroke-width="1" fill="none" fill-rule="evenodd">
        <g id="landing-post-workout-01" transform="translate(-555.000000, -66.000000)">
            <g id="logo-claim-bianco" transform="translate(555.000000, 65.000000)">
                <g id="Page-1">
                    <g id="Group-6" transform="translate(54.317949, 1.693932)">
                        <path d="M207.70267,47.3419175 L207.70267,47.3351214 C207.700972,43.7841505 206.090106,40.6392476 203.562624,38.5239563 C203.000772,38.0601214 202.768224,37.3074515 202.968521,36.6057524 C203.268967,35.5761408 203.426829,34.5023544 203.425131,33.3877913 C203.423434,27.364733 198.830172,22.4545388 192.945162,21.9244417 C192.003085,21.8275971 191.286767,21.0341505 191.295254,20.0860922 L191.295254,20.0317233 C191.293557,13.653568 186.131654,8.51570388 179.735716,8.51740291 C179.138218,8.51740291 178.550906,8.55987864 177.948316,8.6567233 C177.102993,8.78075243 176.286526,8.29143204 175.982685,7.49118932 C174.342962,3.13997573 170.107859,0.0324514563 165.146254,0.0341504854 C161.916034,0.0341504854 159.03209,1.36788835 156.935757,3.49847087 C156.367116,4.06934466 155.489542,4.20186893 154.778316,3.82128641 C153.158962,2.9632767 151.332521,2.46885922 149.375377,2.46885922 C142.979439,2.47055825 137.812444,7.61182039 137.814142,13.9882767 C137.815839,18.7132767 140.677716,22.7484709 144.734588,24.5307524 C145.803972,25.0064806 146.158736,26.3487136 145.464485,27.2916748 C144.432444,28.7205583 144.133695,30.5385194 143.843434,32.3479854 C145.087654,31.6972573 146.382798,31.1127913 147.516685,30.3312379 C147.747536,30.1103641 147.986875,29.8996845 148.202449,29.6669175 C147.942742,29.1589078 147.674547,28.6593932 147.458972,28.1292961 C146.306413,25.7795388 150.020403,24.2640049 150.838567,26.7479854 C151.517542,28.413034 152.476593,29.9047816 153.620665,31.2181311 C156.246598,34.0368204 159.719552,35.9159466 163.577824,36.4511408 C164.324695,35.3603641 165.186993,34.3426456 166.156229,33.4251699 C167.415726,32.1593932 169.554495,33.258665 169.259142,35.0188592 C169.189547,35.4266262 168.977367,35.7970146 168.665039,36.0705583 C167.537942,37.1392476 166.65188,38.4254126 165.893126,39.7846359 C164.703224,42.181966 164.017459,44.8511408 163.993695,47.5950728 C163.958049,50.0127913 164.46728,52.3642476 165.360131,54.5407039 C166.139254,56.2091505 167.149229,57.7654612 168.456254,59.0533252 C170.472808,60.7574515 167.616024,63.649199 165.891429,61.6494417 C165.035921,60.8084223 164.278865,59.8756553 163.604983,58.8970146 C159.582059,59.5392476 156.015747,61.6545388 153.328706,64.7076942 C152.354377,65.8137621 151.553188,67.1916748 150.879306,68.3266262 C150.054352,70.7290534 146.46088,69.3341505 147.469157,67.0047816 C147.869752,65.9853641 148.363706,65.0118204 148.911977,64.0722573 C148.081931,62.6246845 147.010849,61.3521117 145.753049,60.2817233 C144.661598,59.6411893 143.520921,59.0584223 142.336111,58.5725 C141.984742,59.6632767 141.472116,60.6860922 141.472116,61.899199 C141.473813,64.4171602 142.291977,66.7346359 143.661808,68.6290534 C144.311926,69.5193447 144.031849,70.7783252 143.069403,71.3118204 C139.574383,73.2928883 137.238711,77.003568 137.238711,81.3123058 C137.240408,87.6904612 142.380244,92.8283252 148.77788,92.8266262 C150.745208,92.8266262 152.586926,92.3610922 154.201188,91.5013835 C154.914111,91.1174029 155.79508,91.2482282 156.367116,91.824199 C158.461752,93.9445874 161.354183,95.2562379 164.579311,95.2545388 C169.540916,95.2545388 173.738675,92.1470146 175.376701,87.7924029 C175.682239,86.9768689 176.519075,86.4892476 177.377977,86.6268689 C177.946618,86.7237136 178.559393,86.7678883 179.16368,86.7678883 C185.559618,86.7661893 190.690967,81.6300243 190.68927,75.2501699 L190.68927,75.2212864 C190.651926,74.2528398 191.402193,73.4339078 192.368034,73.3540534 C198.259834,72.8273544 202.844608,67.9188592 202.842911,61.8924029 C202.841213,60.7557524 202.673167,59.6445874 202.355747,58.5894903 C202.140172,57.8470146 202.410065,57.0484709 203.034721,56.5931311 C205.876229,54.491432 207.706065,51.1494417 207.706065,47.3419175 L207.70267,47.3419175 Z" id="Fill-1" fill="#236960"></path>
                        <g id="Group-5">
                            <mask id="mask-2" fill="white">
                                <use xlink:href="#path-1"></use>
                            </mask>
                            <g id="Clip-4"></g>
                            <path d="M0.08606,47.3126942 L0.08606,47.3058981 C0.0877574359,43.7549272 1.6986241,40.6100243 4.22610615,38.494733 C4.78795744,38.0308981 5.02050615,37.2782282 4.82020872,36.5765291 C4.51976256,35.5469175 4.36359846,34.4731311 4.36359846,33.358568 C4.3652959,27.3355097 8.95855744,22.4253155 14.8435677,21.8952184 C15.7856446,21.7983738 16.5019626,21.0049272 16.4934754,20.0568689 L16.4934754,20.000801 C16.4951728,13.6243447 21.6570754,8.48648058 28.0530138,8.48817961 C28.6505113,8.48817961 29.2378241,8.53065534 29.8404138,8.6275 C30.6857369,8.75152913 31.5022036,8.26220874 31.8060446,7.46196602 C33.4457677,3.11075243 37.6808703,0.00322815534 42.6424754,0.00492718447 C45.8726959,0.00492718447 48.7566395,1.33866505 50.8529728,3.46754854 C51.4216138,4.04012136 52.2991882,4.17264563 53.0104138,3.79206311 C54.6297677,2.9340534 56.4562087,2.43963592 58.4133523,2.43963592 C64.8092908,2.44133495 69.9762856,7.58259709 69.9745882,13.9590534 C69.9728908,18.6840534 67.1110138,22.7192476 63.0541421,24.5015291 C61.9847574,24.9772573 61.6299933,26.3194903 62.3242446,27.2624515 C63.3562856,28.691335 63.6550344,30.5075971 63.9452959,32.3187621 C62.7010754,31.666335 61.4059318,31.083568 60.2720446,30.3020146 C60.0428908,30.0811408 59.8018549,29.8704612 59.5862805,29.6359951 C59.8459882,29.1296845 60.1141831,28.6301699 60.3297574,28.0983738 C61.4823164,25.7503155 57.7683267,24.2330825 56.9501626,26.7187621 C56.2711882,28.3838107 55.3121369,29.8755583 54.1680651,31.1889078 C51.5421318,34.0075971 48.0691779,35.8867233 44.2109062,36.4219175 C43.4640344,35.3311408 42.6034344,34.3134223 41.632501,33.3942476 C40.374701,32.1301699 38.2342344,33.2294417 38.5295882,34.9896359 C38.5991831,35.3974029 38.8113626,35.7677913 39.1236908,36.041335 C40.2524856,37.1100243 41.1368497,38.3944903 41.8956036,39.7537136 C43.0855062,42.1527427 43.7712703,44.8219175 43.7950344,47.5658495 C43.8306805,49.983568 43.3214497,52.3350243 42.4285985,54.5114806 C41.6494754,56.1799272 40.639501,57.7362379 39.3324754,59.0241019 C37.3159215,60.7282282 40.1727062,63.6182767 41.897301,61.6202184 C42.7528087,60.779199 43.5098651,59.846432 44.1837472,58.8677913 C48.2066703,59.5100243 51.7729831,61.6253155 54.4600241,64.6784709 C55.4343523,65.7845388 56.2355421,67.1624515 56.9094241,68.2974029 C57.7343779,70.6998301 61.3278497,69.3049272 60.3195728,66.9755583 C59.9189779,65.9561408 59.4250241,64.9825971 58.8767523,64.043034 C59.7084959,62.5954612 62.0356805,60.2525 62.0356805,60.2525 C62.0356805,60.2525 64.0709062,58.2170631 64.525819,58.6316262 C64.9824292,59.0461893 66.3166138,60.6568689 66.3166138,61.8699757 C66.3149164,64.3879369 65.4967523,66.7054126 64.1269215,68.5998301 C63.4768036,69.4901214 63.7568805,70.7491019 64.7193267,71.2825971 C68.2143472,73.261966 70.550019,76.9743447 70.550019,81.2830825 C70.5483215,87.6612379 65.4084856,92.7991019 59.0108497,92.7974029 C57.0435215,92.7974029 55.2018036,92.3318689 53.5875421,91.4721602 C52.874619,91.0881796 51.9936497,91.2190049 51.4216138,91.7949757 C49.3269779,93.9153641 46.4345472,95.2270146 43.209419,95.2253155 C38.2478138,95.2253155 34.0500549,92.1177913 32.4120292,87.7631796 C32.1064908,86.9476456 31.2696549,86.4600243 30.4124497,86.5976456 C29.8421113,86.6944903 29.2293369,86.738665 28.6250497,86.738665 C22.2291113,86.736966 17.0977626,81.600801 17.09946,75.2209466 L17.09946,75.1920631 C17.1368036,74.2236165 16.3865369,73.4046845 15.4206959,73.3248301 C9.53059333,72.7981311 4.94581897,67.8896359 4.94751641,61.8631796 C4.94751641,60.7248301 5.11556256,59.6153641 5.43298308,58.558568 C5.64855744,57.8177913 5.37866513,57.0175485 4.75400872,56.5622087 C1.91250103,54.4622087 0.0826651282,51.1202184 0.0826651282,47.3126942 L0.08606,47.3126942 Z" id="Fill-3" fill="#236960" mask="url(#mask-2)"></path>
                        </g>
                    </g>
                    <polygon id="Fill-7" fill="#FCC700" points="193.263771 141.853811 193.263771 114.67784 183.444104 114.67784 183.444104 106.794345 212.064571 106.794345 212.064571 114.67784 202.295827 114.67784 202.295827 141.853811"></polygon>
                    <path d="M234.484983,141.853811 L228.603368,130.079539 L223.98125,130.079539 L223.98125,141.853811 L214.949193,141.853811 L214.949193,106.794345 L232.488798,106.794345 C240.261357,106.794345 244.672993,111.944102 244.672993,118.463277 C244.672993,124.559393 240.996347,127.81983 237.688045,128.97517 L244.830855,141.853811 L234.484983,141.853811 Z M235.483075,118.410607 C235.483075,115.992888 233.539511,114.67784 231.12406,114.67784 L223.98125,114.67784 L223.98125,122.194345 L231.12406,122.194345 C233.539511,122.194345 235.483075,120.880995 235.483075,118.410607 L235.483075,118.410607 Z" id="Fill-8" fill="#FCC700"></path>
                    <path d="M272.029379,141.853811 L270.296297,136.807694 L256.484262,136.807694 L254.751179,141.853811 L244.512246,141.853811 L257.692836,106.794345 L269.089421,106.794345 L282.27001,141.853811 L272.029379,141.853811 Z M263.41659,115.729539 L258.954031,128.9225 L267.828226,128.9225 L263.41659,115.729539 Z" id="Fill-10" fill="#FCC700"></path>
                    <polygon id="Fill-11" fill="#FCC700" points="283.420872 141.853641 292.452928 141.853641 292.452928 106.794175 283.420872 106.794175"></polygon>
                    <polygon id="Fill-12" fill="#FCC700" points="320.810802 106.792816 320.810802 126.083592 306.630422 106.792816 297.336961 106.792816 297.336961 141.853981 306.369017 141.853981 306.369017 121.564175 321.177448 141.853981 329.895478 141.853981 329.895478 106.792816"></polygon>
                    <polygon id="Fill-13" fill="#FCC700" points="0 106.251505 0 141.310971 9.03375385 141.310971 9.03375385 127.485971 25.3121641 127.485971 25.3121641 119.602476 9.03375385 119.602476 9.03375385 114.135 25.6805077 114.135 25.6805077 106.251505"></polygon>
                    <g id="Group-37" transform="translate(27.158974, 13.587136)">
                        <path d="M0.198260513,110.220947 C0.198260513,99.5493447 8.23222462,92.0855097 18.94644,92.0855097 C29.6589579,92.0855097 37.641999,99.5493447 37.641999,110.220947 C37.641999,120.89085 29.6589579,128.354684 18.94644,128.354684 C8.23222462,128.354684 0.198260513,120.89085 0.198260513,110.220947 M28.4503836,110.220947 C28.4503836,104.49182 24.7228144,100.076044 18.94644,100.076044 C13.1700656,100.076044 9.38817846,104.49182 9.38817846,110.220947 C9.38817846,115.897403 13.1700656,120.36585 18.94644,120.36585 C24.7228144,120.36585 28.4503836,115.897403 28.4503836,110.220947" id="Fill-14" fill="#FCC700"></path>
                        <path d="M79.5924297,127.724515 L79.5924297,92.6650485 L94.2973169,92.6650485 C105.325558,92.6650485 113.254281,99.2878641 113.254281,110.168447 C113.254281,121.049029 105.325558,127.724515 94.3499374,127.724515 L79.5924297,127.724515 Z M104.011743,110.168447 C104.011743,104.753641 100.756061,100.548544 94.3499374,100.548544 L88.6244862,100.548544 L88.6244862,119.83932 L94.2973169,119.83932 C100.440337,119.83932 104.011743,115.370874 104.011743,110.168447 L104.011743,110.168447 Z" id="Fill-16" fill="#FCC700"></path>
                        <path d="M39.0028333,110.220947 C39.0028333,99.5493447 47.0367974,92.0855097 57.7510128,92.0855097 C68.4635308,92.0855097 76.4465718,99.5493447 76.4465718,110.220947 C76.4465718,120.89085 68.4635308,128.354684 57.7510128,128.354684 C47.0367974,128.354684 39.0028333,120.89085 39.0028333,110.220947 M67.2549564,110.220947 C67.2549564,104.49182 63.5273872,100.076044 57.7510128,100.076044 C51.9746385,100.076044 48.1927513,104.49182 48.1927513,110.220947 C48.1927513,115.897403 51.9746385,120.36585 57.7510128,120.36585 C63.5273872,120.36585 67.2549564,115.897403 67.2549564,110.220947" id="Fill-18" fill="#FCC700"></path>
                        <path d="M116.460398,128.337694 L116.460398,117.576044 C137.347347,102.840364 139.331649,101.126044 139.331649,97.6991019 C139.331649,95.5056553 137.004465,94.1345388 134.059413,94.1345388 C129.197957,94.1345388 125.499244,95.9168204 122.007618,98.8646359 L114.474398,89.6796845 C119.746634,84.0592961 127.417347,81.9338107 133.786126,81.9338107 C145.632531,81.9338107 153.371142,88.5141505 153.371142,97.6991019 C153.371142,103.936238 149.809921,109.0775 138.92087,116.274587 L153.781921,116.274587 L153.781921,128.337694 L116.460398,128.337694 Z" id="Fill-20" fill="#FCC700"></path>
                        <path d="M72.5524841,26.5996602 C77.89092,26.066165 80.7341251,23.6399515 84.417561,20.4729612 C86.0267303,22.041165 87.9363456,23.2457767 89.9851508,24.1649515 C90.7982226,24.5761165 91.6435456,24.9312136 92.5279097,25.1945631 C92.65352,25.2370388 92.7808277,25.2506311 92.9081354,25.2642233 C93.9894021,25.5547573 95.0961303,25.772233 96.2300174,25.8792718 C100.147699,26.2496602 102.308535,26.1392233 102.308535,26.1392233 L102.568243,40.2139806 C102.568243,40.2139806 99.1513046,40.1137379 94.7973815,41.0227184 C94.3322841,41.1195631 93.8790687,41.2554854 93.4258533,41.3880097 C93.2696892,41.3897087 93.1118277,41.4151942 92.9624533,41.4559709 C88.6662431,42.6367961 85.2493046,45.5931068 82.5826328,49.0727184 C79.8599456,46.3525728 76.4413097,44.5685922 72.6492379,43.7122816 C72.8444431,43.2977184 73.0294636,42.8814563 73.1941149,42.453301 L81.6745046,42.455 C84.3326892,42.6945631 84.3326892,38.5693204 81.6762021,38.8071845 L74.2159713,38.8054854 C74.4332431,37.5821845 74.5503662,36.3350971 74.5401815,35.0710194 C74.5401815,33.8511165 74.3942021,32.6516019 74.1684431,31.4724757 L81.8306687,31.4758738 C84.2783713,31.4758738 84.2800687,27.7991748 81.8306687,27.7991748 L73.0905713,27.7957767 C72.9293149,27.3914078 72.7425969,27.0006311 72.5541815,26.6081553 L72.5524841,26.5996602 Z" id="Fill-22" fill="#FCC700"></path>
                        <path d="M179.901386,28.2961408 L188.643181,28.2944417 C188.802739,27.8900728 188.989457,27.4975971 189.177873,27.1068204 L189.17957,27.0966262 C183.841134,26.5631311 180.997929,24.1369175 177.314493,20.9699272 C175.705324,22.5381311 173.797406,23.7427427 171.748601,24.6619175 C170.933832,25.0730825 170.090206,25.4298786 169.204145,25.6932282 C169.180381,25.7000243 169.154919,25.7034223 169.131155,25.7102184 C168.951227,30.0104612 168.307898,35.6172573 166.474668,41.431335 C166.632529,41.4602184 166.785298,41.4891019 166.934673,41.5196845 C167.401468,41.6165291 167.852986,41.7541505 168.306201,41.8849757 C168.464063,41.8883738 168.621924,41.9121602 168.771298,41.9546359 C173.065811,43.1337621 176.48275,46.0917718 179.149422,49.5696845 C181.872109,46.8495388 185.290745,45.0672573 189.082816,44.2092476 C188.889309,43.7963835 188.702591,43.3784223 188.537939,42.950267 L180.05755,42.951966 C177.399365,43.1915291 177.399365,39.0662864 180.05755,39.3041505 L187.516083,39.3024515 C187.300509,38.0808495 187.183386,36.8320631 187.19357,35.5679854 C187.191873,34.3497816 187.33955,33.148568 187.563611,31.9711408 L179.903083,31.9728398 C177.453683,31.9728398 177.451986,28.2961408 179.901386,28.2961408" id="Fill-24" fill="#FCC700"></path>
                        <path d="M157.861708,14.2422816 C157.486575,14.2422816 157.094467,14.271165 156.668411,14.3323301 C156.552985,14.3391262 156.434165,14.3527184 156.300067,14.3731068 C154.750308,14.6109709 153.950816,14.2269903 153.226011,12.8575728 C152.362016,8.26169903 148.400201,4.95368932 143.703395,4.95368932 C141.987288,4.95368932 140.294944,5.41752427 138.799503,6.29592233 C138.252929,6.48281553 137.969457,6.40635922 137.791226,6.27893204 C136.370472,2.50708738 132.777001,0.00101941748 128.721826,0.00101941748 C124.793959,0.00101941748 121.20558,2.43402913 119.733903,6.07504854 L119.691467,6.15660194 C119.396113,6.72407767 119.206001,6.93985437 119.129616,7.01121359 L119.126221,7.01121359 C117.523842,5.93402913 115.668544,5.3665534 113.738559,5.3665534 C108.462929,5.3665534 104.209154,9.50368932 104.051293,14.7859709 L104.051293,14.8284466 L104.492626,36.6032039 C104.492626,36.6201942 104.480744,36.6371845 104.468862,36.6524757 L104.541852,40.0063592 C105.426216,39.9689806 106.247775,39.6036893 106.860549,38.9631553 C107.490298,38.303932 107.82639,37.4408252 107.806021,36.5301456 L107.366385,14.8437379 C107.490298,11.3862136 110.280883,8.68475728 113.738559,8.68475728 C115.076139,8.68475728 116.359401,9.10101942 117.452549,9.8876699 L117.664729,10.0405825 L117.914252,10.1204369 C120.835539,11.06 122.118801,8.67286408 122.59578,7.75708738 L122.763826,7.43087379 C123.702508,4.97237864 126.09759,3.3192233 128.721826,3.3192233 C131.481857,3.3192233 133.91598,5.08281553 134.779975,7.70781553 L134.885216,8.02723301 L135.105883,8.28038835 C136.350103,9.70927184 138.176544,10.0966505 140.113318,9.34737864 L140.379816,9.2165534 C141.391488,8.5981068 142.540652,8.2718932 143.703395,8.2718932 C146.853836,8.2718932 149.501836,10.533301 149.999185,13.6510194 L150.038226,13.8973786 L150.148559,14.1199515 C151.528575,16.9318447 153.767493,18.119466 156.797416,17.652233 C156.836457,17.6471359 156.872103,17.6437379 156.906052,17.6420388 L157.07919,17.6250485 C157.372847,17.5808738 157.627462,17.5604854 157.861708,17.5604854 C160.813549,17.5604854 163.215421,19.9646117 163.215421,22.9175243 L163.215421,26.1762621 C162.499103,35.8403398 160.377308,49.3204369 150.33358,55.1107282 L149.450913,55.6187379 L149.467888,55.919466 L149.342277,55.9840291 L151.676252,83.9874272 C153.164903,85.3075728 154.410821,86.8265049 155.380057,88.5136408 L152.825416,57.8699515 L152.888221,57.8376699 L152.867852,57.4519903 C163.537934,50.6337864 165.778549,36.5063592 166.525421,26.3597573 L166.530513,22.9175243 C166.530513,18.1347573 162.641688,14.2422816 157.861708,14.2422816 L157.861708,14.2422816 Z M122.568621,7.79956311 L122.572016,7.79276699 L122.568621,7.79956311 Z" id="Fill-26" fill="#FCC700"></path>
                        <path d="M101.686255,21.6165777 L101.643819,21.4194903 C101.104035,19.4961893 99.8716964,18.8709466 99.1859323,18.6687621 C97.8975785,18.2932767 96.3834656,18.7282282 95.1392451,19.8342961 L93.1006246,21.8748301 C94.1988656,22.2554126 95.4532708,22.5442476 96.9011836,22.7600243 L97.3747682,22.2859951 C97.8059169,21.9139078 98.1725631,21.8459466 98.2302759,21.8408495 C98.2302759,21.8425485 98.3287272,21.925801 98.4271785,22.2316262 L98.5392092,22.9690049 C98.5816451,22.9741019 98.6274759,22.9775 98.6682144,22.9808981 C99.0263733,23.0182767 99.4015067,23.0505583 99.7817323,23.0828398 C100.467496,23.1389078 101.177025,23.1898786 101.934081,23.2306553 L101.686255,21.6165777 Z" id="Fill-28" fill="#FCC700"></path>
                        <path d="M114.608665,61.9807524 L113.855004,61.4234709 C113.664891,61.2841505 113.442527,61.0683738 113.249019,60.8763835 L96.2780549,44.1596359 C94.9642395,44.511335 93.8744856,44.9683738 92.9188292,45.506966 L110.921834,63.239733 C110.991429,63.3076942 111.062722,63.3790534 111.139106,63.4504126 L108.334942,92.8402184 C109.460342,93.6013835 110.490686,94.4661893 111.417486,95.4244417 L114.608665,61.9807524 Z" id="Fill-30" fill="#FCC700"></path>
                        <path d="M104.378558,36.6876456 C104.387046,36.6910437 104.395533,36.6995388 104.402323,36.6978398 C104.427784,36.6961408 104.451548,36.6757524 104.47022,36.651966 L104.468523,36.6196845 L104.378558,36.6876456 Z" id="Fill-32" fill="#FEFEFE"></path>
                        <g id="Group-36" transform="translate(15.276923, 139.320388)">
                            <mask id="mask-4" fill="white">
                                <use xlink:href="#path-3"></use>
                            </mask>
                            <g id="Clip-35"></g>
                            <path d="M5.79351846,21.721068 L5.79351846,14.8841748 L10.7347544,14.8841748 C15.3076467,14.8841748 17.8096672,11.8004369 17.8096672,8.1373301 C17.8096672,4.44364078 15.3076467,1.36160194 10.7347544,1.36160194 L0.548441538,1.36160194 L0.548441538,21.721068 L5.79351846,21.721068 Z M9.94035436,10.3052913 L5.79351846,10.3052913 L5.79351846,5.94048544 L9.94035436,5.94048544 C11.3441338,5.94048544 12.4729287,6.73393204 12.4729287,8.1373301 C12.4729287,9.51184466 11.3441338,10.3052913 9.94035436,10.3052913 L9.94035436,10.3052913 Z M30.0074415,22.0880583 C36.2285441,22.0880583 40.8642415,17.7521359 40.8642415,11.5557767 C40.8642415,5.35941748 36.2285441,1.02519417 30.0074415,1.02519417 C23.786339,1.02519417 19.1200877,5.35941748 19.1200877,11.5557767 C19.1200877,17.7521359 23.786339,22.0880583 30.0074415,22.0880583 L30.0074415,22.0880583 Z M30.0074415,17.4480097 C26.6533082,17.4480097 24.4568262,14.8535922 24.4568262,11.5557767 C24.4568262,8.22907767 26.6533082,5.66524272 30.0074415,5.66524272 C33.3615749,5.66524272 35.5275031,8.22907767 35.5275031,11.5557767 C35.5275031,14.8535922 33.3615749,17.4480097 30.0074415,17.4480097 L30.0074415,17.4480097 Z M51.0794108,22.0880583 C56.5383646,22.0880583 59.5581031,19.3713107 59.5581031,15.2800485 C59.5581031,7.71087379 48.0613697,9.6018932 48.0613697,7.0992233 C48.0613697,6.21402913 48.7318569,5.69582524 50.2561544,5.69582524 C52.2693133,5.69582524 54.4963492,6.39752427 56.2039697,7.83150485 L59.0692415,3.89485437 C56.9050108,2.03271845 54.0685954,1.0557767 50.8061236,1.0557767 C45.5899031,1.0557767 42.7246313,4.10893204 42.7246313,7.52737864 C42.7246313,15.3717961 54.2213646,13.1443689 54.2213646,15.830534 C54.2213646,16.8363592 53.1231236,17.4480097 51.3543954,17.4480097 C48.5485338,17.4480097 46.2926415,16.2264078 44.8277544,14.7618447 L42.0524467,18.8514078 C44.0961595,20.7747087 46.9631287,22.0880583 51.0794108,22.0880583 L51.0794108,22.0880583 Z M71.2687133,21.721068 L71.2687133,5.94048544 L76.9398467,5.94048544 L76.9398467,1.36160194 L60.3202518,1.36160194 L60.3202518,5.94048544 L66.0236364,5.94048544 L66.0236364,21.721068 L71.2687133,21.721068 Z M108.320344,21.721068 L114.145944,1.36160194 L108.228683,1.36160194 L105.180088,14.9453398 L101.703739,1.36160194 L97.677421,1.36160194 L94.2010723,14.9453398 L91.1202262,1.36160194 L85.2352159,1.36160194 L91.0591185,21.721068 L96.6097338,21.721068 L99.69058,8.96135922 L102.769729,21.721068 L108.320344,21.721068 Z M125.033298,22.0880583 C131.254401,22.0880583 135.890098,17.7521359 135.890098,11.5557767 C135.890098,5.35941748 131.254401,1.02519417 125.033298,1.02519417 C118.812195,1.02519417 114.145944,5.35941748 114.145944,11.5557767 C114.145944,17.7521359 118.812195,22.0880583 125.033298,22.0880583 L125.033298,22.0880583 Z M125.033298,17.4480097 C121.677467,17.4480097 119.482683,14.8535922 119.482683,11.5557767 C119.482683,8.22907767 121.677467,5.66524272 125.033298,5.66524272 C128.387431,5.66524272 130.553359,8.22907767 130.553359,11.5557767 C130.553359,14.8535922 128.387431,17.4480097 125.033298,17.4480097 L125.033298,17.4480097 Z M155.89438,21.721068 L151.747544,14.2419417 C153.669042,13.5708252 155.802718,11.6781068 155.802718,8.1373301 C155.802718,4.3518932 153.241288,1.36160194 148.727806,1.36160194 L138.541493,1.36160194 L138.541493,21.721068 L143.788267,21.721068 L143.788267,14.8841748 L146.471913,14.8841748 L149.887154,21.721068 L155.89438,21.721068 Z M147.935103,10.3052913 L143.788267,10.3052913 L143.788267,5.94048544 L147.935103,5.94048544 C149.337185,5.94048544 150.46598,6.70334951 150.46598,8.10674757 C150.46598,9.54242718 149.337185,10.3052913 147.935103,10.3052913 L147.935103,10.3052913 Z M177.090262,21.721068 L168.764339,10.8846602 L176.662508,1.36160194 L170.196975,1.36160194 L163.945318,9.7242233 L163.945318,1.36160194 L158.700242,1.36160194 L158.700242,21.721068 L163.945318,21.721068 L163.945318,15.7693689 L165.318544,14.0601456 L170.655283,21.721068 L177.090262,21.721068 Z M187.152662,22.0880583 C193.373765,22.0880583 198.009462,17.7521359 198.009462,11.5557767 C198.009462,5.35941748 193.373765,1.02519417 187.152662,1.02519417 C180.931559,1.02519417 176.265308,5.35941748 176.265308,11.5557767 C176.265308,17.7521359 180.931559,22.0880583 187.152662,22.0880583 L187.152662,22.0880583 Z M187.152662,17.4480097 C183.798529,17.4480097 181.603744,14.8535922 181.603744,11.5557767 C181.603744,8.22907767 183.798529,5.66524272 187.152662,5.66524272 C190.508493,5.66524272 192.672724,8.22907767 192.672724,11.5557767 C192.672724,14.8535922 190.508493,17.4480097 187.152662,17.4480097 L187.152662,17.4480097 Z M210.298898,22.0880583 C216.825539,22.0880583 219.875831,18.516699 219.875831,13.4484951 L219.875831,1.36160194 L214.569647,1.36160194 L214.569647,13.2955825 C214.569647,15.7082039 213.104759,17.4480097 210.298898,17.4480097 C207.46418,17.4480097 205.999293,15.7082039 205.999293,13.2955825 L205.999293,1.36160194 L200.662554,1.36160194 L200.662554,13.4790777 C200.662554,18.4861165 203.773954,22.0880583 210.298898,22.0880583 L210.298898,22.0880583 Z M233.324616,21.721068 L233.324616,5.94048544 L238.997447,5.94048544 L238.997447,1.36160194 L222.376154,1.36160194 L222.376154,5.94048544 L228.079539,5.94048544 L228.079539,21.721068 L233.324616,21.721068 Z" id="Fill-34" fill="#FFFFFF" mask="url(#mask-4)"></path>
                        </g>
                    </g>
                </g>
            </g>
        </g>
    </g>
</svg>