<?xml version="1.0" encoding="utf-8"?>
<!-- Generator: Adobe Illustrator 19.0.0, SVG Export Plug-In . SVG Version: 6.00 Build 0)  -->
<svg version="1.1" id="Layer_1" xmlns="http://www.w3.org/2000/svg" xmlns:xlink="http://www.w3.org/1999/xlink" x="0px" y="0px"
	 viewBox="99 -30.3 329.9 140.2" style="enable-background:new 99 -30.3 329.9 140.2;" xml:space="preserve">
<style type="text/css">
	.st0{fill:#236960;}
	.st1{filter:url(#Adobe_OpacityMaskFilter);}
	.st2{fill:#FFFFFF;}
	.st3{mask:url(#mask-2);fill:#236960;}
</style>
<title>food2-train-logo-claim bianco</title>
<desc>Created with Sketch.</desc>
<g id="home">
	<g id="landing-post-workout-01" transform="translate(-555.000000, -66.000000)">
		<g id="logo-claim-bianco" transform="translate(555.000000, 65.000000)">
			<g id="Page-1">
				<g id="Group-6" transform="translate(54.317949, 1.693932)">
					<path id="Fill-1" class="st0" d="M306.7,16.3L306.7,16.3c0-3.6-1.6-6.7-4.1-8.8c-0.6-0.5-0.8-1.2-0.6-1.9
						c0.3-1,0.5-2.1,0.5-3.2c0-6-4.6-10.9-10.5-11.5c-0.9-0.1-1.7-0.9-1.6-1.8V-11c0-6.4-5.2-11.5-11.6-11.5c-0.6,0-1.2,0-1.8,0.1
						c-0.8,0.1-1.7-0.4-2-1.2c-1.6-4.4-5.9-7.5-10.8-7.5c-3.2,0-6.1,1.3-8.2,3.5c-0.6,0.6-1.4,0.7-2.2,0.3c-1.6-0.9-3.4-1.4-5.4-1.4
						c-6.4,0-11.6,5.1-11.6,11.5c0,4.7,2.9,8.8,6.9,10.5c1.1,0.5,1.4,1.8,0.7,2.8c-1,1.4-1.3,3.2-1.6,5.1c1.2-0.7,2.5-1.2,3.7-2
						c0.2-0.2,0.5-0.4,0.7-0.7c-0.3-0.5-0.5-1-0.7-1.5c-1.2-2.3,2.6-3.9,3.4-1.4c0.7,1.7,1.6,3.2,2.8,4.5c2.6,2.8,6.1,4.7,10,5.2
						c0.7-1.1,1.6-2.1,2.6-3c1.3-1.3,3.4-0.2,3.1,1.6c-0.1,0.4-0.3,0.8-0.6,1.1c-1.1,1.1-2,2.4-2.8,3.7c-1.2,2.4-1.9,5.1-1.9,7.8
						c0,2.4,0.5,4.8,1.4,6.9c0.8,1.7,1.8,3.2,3.1,4.5c2,1.7-0.8,4.6-2.6,2.6c-0.9-0.8-1.6-1.8-2.3-2.8c-4,0.6-7.6,2.8-10.3,5.8
						c-1,1.1-1.8,2.5-2.4,3.6c-0.8,2.4-4.4,1-3.4-1.3c0.4-1,0.9-2,1.4-2.9c-0.8-1.4-1.9-2.7-3.2-3.8c-1.1-0.6-2.2-1.2-3.4-1.7
						c-0.4,1.1-0.9,2.1-0.9,3.3c0,2.5,0.8,4.8,2.2,6.7c0.7,0.9,0.4,2.1-0.6,2.7c-3.5,2-5.8,5.7-5.8,10c0,6.4,5.1,11.5,11.5,11.5
						c2,0,3.8-0.5,5.4-1.3c0.7-0.4,1.6-0.3,2.2,0.3c2.1,2.1,5,3.4,8.2,3.4c5,0,9.2-3.1,10.8-7.5c0.3-0.8,1.1-1.3,2-1.2
						c0.6,0.1,1.2,0.1,1.8,0.1c6.4,0,11.5-5.1,11.5-11.5v0c0-1,0.7-1.8,1.7-1.9c5.9-0.5,10.5-5.4,10.5-11.5c0-1.1-0.2-2.2-0.5-3.3
						c-0.2-0.7,0.1-1.5,0.7-2C304.9,23.5,306.7,20.1,306.7,16.3L306.7,16.3z"/>
					<g id="Group-5">
						<g id="Clip-4">
						</g>
						<defs>
							<filter id="Adobe_OpacityMaskFilter" filterUnits="userSpaceOnUse" x="99.1" y="-31" width="70.5" height="95.2">
								<feColorMatrix  type="matrix" values="1 0 0 0 0  0 1 0 0 0  0 0 1 0 0  0 0 0 1 0"/>
							</filter>
						</defs>
						<mask maskUnits="userSpaceOnUse" x="99.1" y="-31" width="70.5" height="95.2" id="mask-2">
							<g class="st1">
								<polygon id="path-1" class="st2" points="169.6,-31 99.1,-31 99.1,64.2 169.6,64.2 								"/>
							</g>
						</mask>
						<path id="Fill-3" class="st3" d="M99.1,16.3L99.1,16.3c0-3.6,1.6-6.7,4.1-8.8c0.6-0.5,0.8-1.2,0.6-1.9c-0.3-1-0.5-2.1-0.5-3.2
							c0-6,4.6-10.9,10.5-11.5c0.9-0.1,1.7-0.9,1.6-1.8V-11c0-6.4,5.2-11.5,11.6-11.5c0.6,0,1.2,0,1.8,0.1c0.8,0.1,1.7-0.4,2-1.2
							c1.6-4.4,5.9-7.5,10.8-7.5c3.2,0,6.1,1.3,8.2,3.5c0.6,0.6,1.4,0.7,2.2,0.3c1.6-0.9,3.4-1.4,5.4-1.4c6.4,0,11.6,5.1,11.6,11.5
							c0,4.7-2.9,8.8-6.9,10.5c-1.1,0.5-1.4,1.8-0.7,2.8c1,1.4,1.3,3.2,1.6,5.1c-1.2-0.7-2.5-1.2-3.7-2c-0.2-0.2-0.5-0.4-0.7-0.7
							c0.3-0.5,0.5-1,0.7-1.5c1.2-2.3-2.6-3.9-3.4-1.4c-0.7,1.7-1.6,3.2-2.8,4.5c-2.6,2.8-6.1,4.7-10,5.2c-0.7-1.1-1.6-2.1-2.6-3
							c-1.3-1.3-3.4-0.2-3.1,1.6c0.1,0.4,0.3,0.8,0.6,1.1c1.1,1.1,2,2.4,2.8,3.7c1.2,2.4,1.9,5.1,1.9,7.8c0,2.4-0.5,4.8-1.4,6.9
							c-0.8,1.7-1.8,3.2-3.1,4.5c-2,1.7,0.8,4.6,2.6,2.6c0.9-0.8,1.6-1.8,2.3-2.8c4,0.6,7.6,2.8,10.3,5.8c1,1.1,1.8,2.5,2.4,3.6
							c0.8,2.4,4.4,1,3.4-1.3c-0.4-1-0.9-2-1.4-2.9c0.8-1.4,3.2-3.8,3.2-3.8s2-2,2.5-1.6c0.5,0.4,1.8,2,1.8,3.2
							c0,2.5-0.8,4.8-2.2,6.7c-0.7,0.9-0.4,2.1,0.6,2.7c3.5,2,5.8,5.7,5.8,10c0,6.4-5.1,11.5-11.5,11.5c-2,0-3.8-0.5-5.4-1.3
							c-0.7-0.4-1.6-0.3-2.2,0.3c-2.1,2.1-5,3.4-8.2,3.4c-5,0-9.2-3.1-10.8-7.5c-0.3-0.8-1.1-1.3-2-1.2c-0.6,0.1-1.2,0.1-1.8,0.1
							c-6.4,0-11.5-5.1-11.5-11.5v0c0-1-0.7-1.8-1.7-1.9c-5.9-0.5-10.5-5.4-10.5-11.5c0-1.1,0.2-2.2,0.5-3.3c0.2-0.7-0.1-1.5-0.7-2
							C100.9,23.5,99.1,20.1,99.1,16.3L99.1,16.3z"/>
					</g>
				</g>
				<polygon id="Fill-7" class="st0" points="292.3,110.9 292.3,83.7 282.4,83.7 282.4,75.8 311.1,75.8 311.1,83.7 301.3,83.7 
					301.3,110.9 				"/>
				<path id="Fill-8" class="st0" d="M333.5,110.9l-5.9-11.8H323v11.8h-9V75.8h17.5c7.8,0,12.2,5.1,12.2,11.7c0,6.1-3.7,9.4-7,10.5
					l7.1,12.9H333.5z M334.5,87.4c0-2.4-1.9-3.7-4.4-3.7H323v7.5h7.1C332.5,91.2,334.5,89.9,334.5,87.4L334.5,87.4z"/>
				<path id="Fill-10" class="st0" d="M371,110.9l-1.7-5h-13.8l-1.7,5h-10.2l13.2-35.1h11.4l13.2,35.1H371z M362.4,84.7L358,97.9
					h8.9L362.4,84.7z"/>
				<polygon id="Fill-11" class="st0" points="382.4,110.9 391.5,110.9 391.5,75.8 382.4,75.8 				"/>
				<polygon id="Fill-12" class="st0" points="419.8,75.8 419.8,95.1 405.6,75.8 396.3,75.8 396.3,110.9 405.4,110.9 405.4,90.6 
					420.2,110.9 428.9,110.9 428.9,75.8 				"/>
				<polygon id="Fill-13" class="st0" points="99,75.3 99,110.3 108,110.3 108,96.5 124.3,96.5 124.3,88.6 108,88.6 108,83.1 
					124.7,83.1 124.7,75.3 				"/>
				<g id="Group-37" transform="translate(27.158974, 13.587136)">
					<path id="Fill-14" class="st0" d="M99.2,79.2c0-10.7,8-18.1,18.7-18.1c10.7,0,18.7,7.5,18.7,18.1c0,10.7-8,18.1-18.7,18.1
						C107.2,97.4,99.2,89.9,99.2,79.2 M127.5,79.2c0-5.7-3.7-10.1-9.5-10.1s-9.6,4.4-9.6,10.1c0,5.7,3.8,10.1,9.6,10.1
						S127.5,84.9,127.5,79.2"/>
					<path id="Fill-16" class="st0" d="M178.6,96.7V61.7h14.7c11,0,19,6.6,19,17.5s-7.9,17.6-18.9,17.6H178.6z M203,79.2
						c0-5.4-3.3-9.6-9.7-9.6h-5.7v19.3h5.7C199.4,88.8,203,84.4,203,79.2L203,79.2z"/>
					<path id="Fill-18" class="st0" d="M138,79.2c0-10.7,8-18.1,18.7-18.1c10.7,0,18.7,7.5,18.7,18.1c0,10.7-8,18.1-18.7,18.1
						C146,97.4,138,89.9,138,79.2 M166.3,79.2c0-5.7-3.7-10.1-9.5-10.1c-5.8,0-9.6,4.4-9.6,10.1c0,5.7,3.8,10.1,9.6,10.1
						C162.5,89.4,166.3,84.9,166.3,79.2"/>
					<path id="Fill-20" class="st0" d="M215.5,97.3V86.6c20.9-14.7,22.9-16.4,22.9-19.9c0-2.2-2.3-3.6-5.3-3.6
						c-4.9,0-8.6,1.8-12.1,4.7l-7.5-9.2c5.3-5.6,12.9-7.7,19.3-7.7c11.8,0,19.6,6.6,19.6,15.8c0,6.2-3.6,11.4-14.5,18.6h14.9v12.1
						H215.5z"/>
					<path id="Fill-22" class="st0" d="M171.6-4.4c5.3-0.5,8.2-3,11.9-6.1c1.6,1.6,3.5,2.8,5.6,3.7c0.8,0.4,1.7,0.8,2.5,1
						c0.1,0,0.3,0.1,0.4,0.1c1.1,0.3,2.2,0.5,3.3,0.6c3.9,0.4,6.1,0.3,6.1,0.3l0.3,14.1c0,0-3.4-0.1-7.8,0.8
						c-0.5,0.1-0.9,0.2-1.4,0.4c-0.2,0-0.3,0-0.5,0.1c-4.3,1.2-7.7,4.1-10.4,7.6c-2.7-2.7-6.1-4.5-9.9-5.4c0.2-0.4,0.4-0.8,0.5-1.3
						l8.5,0c2.7,0.2,2.7-3.9,0-3.6l-7.5,0c0.2-1.2,0.3-2.5,0.3-3.7c0-1.2-0.1-2.4-0.4-3.6l7.7,0c2.4,0,2.4-3.7,0-3.7l-8.7,0
						C171.9-3.6,171.7-4,171.6-4.4L171.6-4.4z"/>
					<path id="Fill-24" class="st0" d="M278.9-2.7l8.7,0c0.2-0.4,0.3-0.8,0.5-1.2l0,0c-5.3-0.5-8.2-3-11.9-6.1
						c-1.6,1.6-3.5,2.8-5.6,3.7c-0.8,0.4-1.7,0.8-2.5,1c0,0,0,0-0.1,0c-0.2,4.3-0.8,9.9-2.7,15.7c0.2,0,0.3,0.1,0.5,0.1
						c0.5,0.1,0.9,0.2,1.4,0.4c0.2,0,0.3,0,0.5,0.1c4.3,1.2,7.7,4.1,10.4,7.6c2.7-2.7,6.1-4.5,9.9-5.4c-0.2-0.4-0.4-0.8-0.5-1.3
						l-8.5,0c-2.7,0.2-2.7-3.9,0-3.6l7.5,0c-0.2-1.2-0.3-2.5-0.3-3.7c0-1.2,0.1-2.4,0.4-3.6l-7.7,0C276.5,1,276.5-2.7,278.9-2.7"/>
					<path id="Fill-26" class="st0" d="M256.9-16.8c-0.4,0-0.8,0-1.2,0.1c-0.1,0-0.2,0-0.4,0c-1.5,0.2-2.3-0.1-3.1-1.5
						c-0.9-4.6-4.8-7.9-9.5-7.9c-1.7,0-3.4,0.5-4.9,1.3c-0.5,0.2-0.8,0.1-1,0c-1.4-3.8-5-6.3-9.1-6.3c-3.9,0-7.5,2.4-9,6.1l0,0.1
						c-0.3,0.6-0.5,0.8-0.6,0.9h0c-1.6-1.1-3.5-1.6-5.4-1.6c-5.3,0-9.5,4.1-9.7,9.4v0l0.4,21.8c0,0,0,0,0,0l0.1,3.4
						c0.9,0,1.7-0.4,2.3-1c0.6-0.7,1-1.5,0.9-2.4l-0.4-21.7c0.1-3.5,2.9-6.2,6.4-6.2c1.3,0,2.6,0.4,3.7,1.2l0.2,0.2l0.2,0.1
						c2.9,0.9,4.2-1.4,4.7-2.4l0.2-0.3c0.9-2.5,3.3-4.1,6-4.1c2.8,0,5.2,1.8,6.1,4.4l0.1,0.3l0.2,0.3c1.2,1.4,3.1,1.8,5,1.1l0.3-0.1
						c1-0.6,2.2-0.9,3.3-0.9c3.2,0,5.8,2.3,6.3,5.4l0,0.2l0.1,0.2c1.4,2.8,3.6,4,6.6,3.5c0,0,0.1,0,0.1,0l0.2,0
						c0.3,0,0.5-0.1,0.8-0.1c3,0,5.4,2.4,5.4,5.4v3.3c-0.7,9.7-2.8,23.1-12.9,28.9l-0.9,0.5l0,0.3l-0.1,0.1l2.3,28
						c1.5,1.3,2.7,2.8,3.7,4.5l-2.6-30.6l0.1,0l0-0.4c10.7-6.8,12.9-20.9,13.7-31.1l0-3.4C265.5-12.9,261.6-16.8,256.9-16.8
						L256.9-16.8z M221.6-23.2L221.6-23.2L221.6-23.2z"/>
					<path id="Fill-28" class="st0" d="M200.7-9.4l0-0.2c-0.5-1.9-1.8-2.5-2.5-2.8c-1.3-0.4-2.8,0.1-4,1.2l-2,2
						c1.1,0.4,2.4,0.7,3.8,0.9l0.5-0.5c0.4-0.4,0.8-0.4,0.9-0.4c0,0,0.1,0.1,0.2,0.4l0.1,0.7c0,0,0.1,0,0.1,0c0.4,0,0.7,0.1,1.1,0.1
						c0.7,0.1,1.4,0.1,2.2,0.1L200.7-9.4z"/>
					<path id="Fill-30" class="st0" d="M213.6,31l-0.8-0.6c-0.2-0.1-0.4-0.4-0.6-0.5l-17-16.7c-1.3,0.4-2.4,0.8-3.4,1.3l18,17.7
						c0.1,0.1,0.1,0.1,0.2,0.2l-2.8,29.4c1.1,0.8,2.2,1.6,3.1,2.6L213.6,31z"/>
					<path id="Fill-32" class="st0" d="M203.4,5.7C203.4,5.7,203.4,5.7,203.4,5.7C203.4,5.7,203.5,5.7,203.4,5.7L203.4,5.7
						L203.4,5.7z"/>
				</g>
			</g>
		</g>
	</g>
</g>
</svg>
