<?xml version="1.0" encoding="UTF-8"?>
<svg width="102px" height="110px" viewBox="0 0 102 110" version="1.1" xmlns="http://www.w3.org/2000/svg" xmlns:xlink="http://www.w3.org/1999/xlink">
    <!-- Generator: Sketch 44.1 (41455) - http://www.bohemiancoding.com/sketch -->
    <title>preparazione@2x</title>
    <desc>Created with Sketch.</desc>
    <defs></defs>
    <g id="home" stroke="none" stroke-width="1" fill="none" fill-rule="evenodd">
        <g id="landing-post-workout-01" transform="translate(-175.000000, -1765.000000)">
            <g id="preparazione" transform="translate(175.000000, 1765.000000)">
                <g id="Page-1">
                    <path d="M83.8259774,93.7712777 L29.1702792,93.7712777 C27.8592604,93.7712777 26.9837887,92.9459916 26.9837887,91.7101256 L26.9837887,49.4616663 C18.0211472,46.7815496 11.8994113,38.9516476 11.8994113,29.8838165 C11.8994113,17.3126458 23.9218264,7.21320695 37.4785057,9.68700207 C41.6304302,3.7098674 48.8465057,0.000206321528 56.4981283,0.000206321528 C64.1497509,0.000206321528 71.3636377,3.7098674 75.5177509,9.68700207 C76.8287698,9.48068054 78.1419774,9.27435901 79.4529962,9.27435901 C91.4776,9.27435901 101.315713,18.5485117 101.315713,29.8838165 C101.315713,38.7453261 95.1939774,46.5772913 86.2313358,49.4616663 L86.2313358,91.7101256 C86.0124679,92.9459916 85.1369962,93.7712777 83.8259774,93.7712777 L83.8259774,93.7712777 Z M31.3567698,89.6489735 L81.6394868,89.6489735 L81.6394868,47.8131573 C81.6394868,46.7815496 82.2960906,45.9583267 83.3882415,45.7520052 C91.2587321,43.8971747 96.7238642,37.3031386 96.7238642,29.8838165 C96.7238642,20.8159853 88.8533736,13.3966631 79.2341283,13.3966631 C77.9231094,13.3966631 76.3932226,13.6029847 74.8633358,14.0135645 C73.9878642,14.219886 72.8957132,13.807243 72.4579774,12.9840201 C69.1771472,7.62585 63.0576,4.12251045 56.2792604,4.12251045 C49.7197887,4.12251045 43.3813736,7.41952848 40.1005434,12.9840201 C39.6649962,13.807243 38.5706566,14.219886 37.6973736,14.0135645 C26.3271849,11.1291896 16.0535245,19.5780561 16.0535245,29.8838165 C16.0535245,37.5094601 21.5186566,44.1034962 29.3891472,45.7520052 C30.2624302,45.9583267 31.1379019,46.7815496 31.1379019,47.8131573 L31.1379019,89.6489735 L31.3567698,89.6489735 Z" id="Fill-1" fill="#236960"></path>
                    <path d="M51.0323396,81.4058095 C49.7213208,81.4058095 48.8458491,80.5805234 48.8458491,79.3446575 L48.8458491,58.7352 C48.8458491,57.499334 49.7213208,56.6740479 51.0323396,56.6740479 C52.3433585,56.6740479 53.2188302,57.499334 53.2188302,58.7352 L53.2188302,79.3446575 C53.2188302,80.5805234 52.3433585,81.4058095 51.0323396,81.4058095" id="Fill-3" fill="#236960"></path>
                    <path d="M61.9632604,81.4058095 C60.6522415,81.4058095 59.7767698,80.5805234 59.7767698,79.3446575 L59.7767698,58.7352 C59.7767698,57.499334 60.6522415,56.6740479 61.9632604,56.6740479 C63.2742792,56.6740479 64.1497509,57.499334 64.1497509,58.7352 L64.1497509,79.3446575 C64.1497509,80.5805234 63.2742792,81.4058095 61.9632604,81.4058095" id="Fill-5" fill="#236960"></path>
                    <path d="M40.1009811,81.4058095 C38.7899623,81.4058095 37.9144906,80.5805234 37.9144906,79.3446575 L37.9144906,62.8575041 C37.9144906,61.6216382 38.7899623,60.7963521 40.1009811,60.7963521 C41.412,60.7963521 42.2874717,61.6216382 42.2874717,62.8575041 L42.2874717,79.3446575 C42.2874717,80.5805234 41.412,81.4058095 40.1009811,81.4058095" id="Fill-7" fill="#236960"></path>
                    <path d="M72.8946189,81.4058095 C71.5836,81.4058095 70.7081283,80.5805234 70.7081283,79.3446575 L70.7081283,62.8575041 C70.7081283,61.6216382 71.5836,60.7963521 72.8946189,60.7963521 C74.2056377,60.7963521 75.0811094,61.6216382 75.0811094,62.8575041 L75.0811094,79.3446575 C75.0811094,80.5805234 74.2056377,81.4058095 72.8946189,81.4058095" id="Fill-9" fill="#236960"></path>
                    <path d="M83.8259774,87.5886468 L29.1702792,87.5886468 C27.8592604,87.5886468 26.9837887,86.7633606 26.9837887,85.5274947 C26.9837887,84.2916287 27.8592604,83.4663426 29.1702792,83.4663426 L83.8259774,83.4663426 C85.1369962,83.4663426 86.0124679,84.2916287 86.0124679,85.5274947 C86.0124679,86.7633606 85.1369962,87.5886468 83.8259774,87.5886468" id="Fill-11" fill="#236960"></path>
                    <path d="M50.7401509,82.8149856 C50.7401509,75.5297724 44.6775094,67.7287554 35.6513962,67.7287554 C31.210566,67.7287554 28.133283,69.4329712 26.1306415,71.2197157 C24.128,69.4329712 21.0529057,67.7287554 16.6098868,67.7287554 C7.58377358,67.7287554 1.52113208,75.5297724 1.52113208,82.8149856 C1.52113208,92.9309301 20.2956226,105.483532 24.0579623,107.897494 C24.6729811,108.289505 25.3886792,108.497889 26.1306415,108.497889 C26.8704151,108.497889 27.5861132,108.289505 28.1989434,107.899557 C31.9678491,105.483532 50.7401509,92.9309301 50.7401509,82.8149856" id="Fill-13" fill="#CC1719"></path>
                    <path d="M50.7401509,82.8149856 C50.7401509,75.5297724 44.6775094,67.7287554 35.6513962,67.7287554 C31.210566,67.7287554 28.133283,69.4329712 26.1306415,71.2197157 C24.128,69.4329712 21.0529057,67.7287554 16.6098868,67.7287554 C7.58377358,67.7287554 1.52113208,75.5297724 1.52113208,82.8149856 C1.52113208,92.9309301 20.2956226,105.483532 24.0579623,107.897494 C24.6729811,108.289505 25.3886792,108.497889 26.1306415,108.497889 C26.8704151,108.497889 27.5861132,108.289505 28.1989434,107.899557 C31.9678491,105.483532 50.7401509,92.9309301 50.7401509,82.8149856 Z" id="Stroke-15" stroke="#FEFEFE" stroke-width="1.391"></path>
                </g>
            </g>
        </g>
    </g>
</svg>