<?xml version="1.0" encoding="utf-8"?>
<!-- Generator: Adobe Illustrator 19.0.0, SVG Export Plug-In . SVG Version: 6.00 Build 0)  -->
<svg version="1.1" id="Layer_1" xmlns="http://www.w3.org/2000/svg" xmlns:xlink="http://www.w3.org/1999/xlink" x="0px" y="0px"
	 viewBox="-223 338 165 118" style="enable-background:new -223 338 165 118;" xml:space="preserve">
<style type="text/css">
	.st0{fill:#FFFFFF;}
	.st1{filter:url(#Adobe_OpacityMaskFilter);}
	.st2{mask:url(#mask-2_1_);}
</style>
<title>quick-logovector</title>
<desc>Created with Sketch.</desc>
<g id="holder-postworkout">
	<g id="Food2Train-holder-filtrata" transform="translate(-142.000000, -5457.000000)">
		<g id="Group-2-Copy" transform="translate(-18.000000, 5295.000000)">
			<g id="Group-4" transform="translate(111.000000, 165.000000)">
				<g id="quick-logo" transform="translate(52.000000, 0.000000)">
					<g id="Page-1">
						<path class="st0" d="M-68.6,452.1l-4.5-2.1c4.6-10.1,7.1-21.2,7.1-32.3c0-42.6-34.6-77.2-77.2-77.2s-77.2,34.6-77.2,77.2
							c0,11.1,2.4,22.2,7.1,32.2l-4.5,2.1c-4.9-10.7-7.5-22.6-7.5-34.3c0-21.8,8.6-42.4,24.2-58c15.6-15.6,36.2-24.2,58-24.2
							c21.8,0,42.4,8.6,58,24.2s24.2,36.2,24.2,58C-61.1,429.5-63.7,441.4-68.6,452.1z"/>
					</g>
					<g id="Page-1-Copy" transform="translate(32.000000, 70.000000)">
						<g id="Clip-2">
						</g>
						<defs>
							<filter id="Adobe_OpacityMaskFilter" filterUnits="userSpaceOnUse" x="-223" y="338" width="96" height="44">
								<feColorMatrix  type="matrix" values="1 0 0 0 0  0 1 0 0 0  0 0 1 0 0  0 0 0 1 0"/>
							</filter>
						</defs>
						<mask maskUnits="userSpaceOnUse" x="-223" y="338" width="96" height="44" id="mask-2_1_">
							<g class="st1">
								<polygon id="path-1_1_" class="st0" points="-223,382 -127,382 -127,338 -223,338 								"/>
							</g>
						</mask>
						<g id="Fill-1" class="st2">
							<path class="st0" d="M-137.8,371.1c0,3.1-2.6,5.7-5.8,5.7c-3.2,0-5.8-2.6-5.8-5.7v-22.2c0-3.1,2.6-5.7,5.8-5.7
								c3.2,0,5.8,2.6,5.8,5.7V371.1z M-200.7,371.1c0,3.1-2.6,5.7-5.8,5.7s-5.8-2.6-5.8-5.7v-22.2c0-3.1,2.6-5.7,5.8-5.7
								s5.8,2.6,5.8,5.7V371.1z M-129.7,357.4h-2.7v-8.5c0-6-5-10.9-11.1-10.9c-6.1,0-11.1,4.9-11.1,10.9v8.5h-40.7v-8.5
								c0-6-5-10.9-11.1-10.9s-11.1,4.9-11.1,10.9v8.5h-2.7c-1.5,0-2.7,1.2-2.7,2.6s1.2,2.6,2.7,2.6h2.7v8.5c0,6,5,10.9,11.1,10.9
								s11.1-4.9,11.1-10.9v-8.5h40.7v8.5c0,6,5,10.9,11.1,10.9s11.1-4.9,11.1-10.9v-8.5h2.7c1.5,0,2.7-1.2,2.7-2.6
								C-127,358.6-128.2,357.4-129.7,357.4L-129.7,357.4z"/>
						</g>
					</g>
				</g>
			</g>
		</g>
	</g>
</g>
</svg>
