<?xml version="1.0" encoding="utf-8"?>
<!-- Generator: Adobe Illustrator 19.0.0, SVG Export Plug-In . SVG Version: 6.00 Build 0)  -->
<svg version="1.1" id="Layer_1" xmlns="http://www.w3.org/2000/svg" xmlns:xlink="http://www.w3.org/1999/xlink" x="0px" y="0px"
	 viewBox="-223 337 165 120" style="enable-background:new -223 337 165 120;" xml:space="preserve">
<style type="text/css">
	.st0{fill:#FFFFFF;}
</style>
<title>shaping-logovector</title>
<desc>Created with Sketch.</desc>
<g id="holder-postworkout">
	<g id="Food2Train-holder-filtrata" transform="translate(-629.000000, -5458.000000)">
		<g id="shaping-logo" transform="translate(632.000000, 5461.000000)">
			<g id="Page-1-Copy-4">
				<path class="st0" d="M-68.6,451.1l-4.5-2.1c4.6-10.1,7.1-21.2,7.1-32.3c0-42.6-34.6-77.2-77.2-77.2s-77.2,34.6-77.2,77.2
					c0,11.1,2.4,22.2,7.1,32.2l-4.5,2.1c-4.9-10.7-7.5-22.6-7.5-34.3c0-21.8,8.6-42.4,24.2-58c15.6-15.6,36.2-24.2,58-24.2
					c21.8,0,42.4,8.6,58,24.2s24.2,36.2,24.2,58C-61.1,428.5-63.7,440.4-68.6,451.1z"/>
			</g>
			<g id="Page-1" transform="translate(38.000000, 39.000000)">
				<g id="Fill-1">
					<path class="st0" d="M-149.3,346.8c0,1.9-1.6,3.5-3.5,3.5h-14.1v-7.1h14.1C-150.9,343.3-149.3,344.9-149.3,346.8L-149.3,346.8z
						 M-209.6,407.1c0,2-1.6,3.5-3.5,3.5c-2,0-3.5-1.6-3.5-3.5v-14.1h7.1V407.1z M-171.3,354.5c0,1.2,1,2.2,2.2,2.2
						c1.1,0,2-0.9,2.1-2h14.1c4.3,0,7.9-3.5,7.9-7.9s-3.5-7.9-7.9-7.9H-167c-0.1-1.1-1-2-2.1-2c-1.2,0-2.2,1-2.2,2.2v5.5h-11.3
						c-6.4,0-11.5,5.2-11.5,11.5s5.2,11.5,11.5,11.5h11.3c8,0,14.6,6.5,14.6,14.6c0,8-6.5,14.6-14.6,14.6c-7.3,0-13.2-5.9-13.2-13.2
						c0-4.5-3.7-8.2-8.2-8.2h-13.9c-4.8,0-8.8,3.9-8.8,8.8v4.5h-5.5c-1.2,0-2.2,1-2.2,2.2c0,1.1,0.9,2,2,2.1v14.1
						c0,4.3,3.5,7.9,7.9,7.9c4.3,0,7.9-3.5,7.9-7.9V393c1.1-0.1,2-1,2-2.1c0-1.2-1-2.2-2.2-2.2h-5.5v-4.5c0-2.4,2-4.4,4.4-4.4h13.9
						c2.1,0,3.9,1.7,3.9,3.9c0,9.6,7.8,17.5,17.5,17.5c10.4,0,18.9-8.5,18.9-18.9c0-10.4-8.5-18.9-18.9-18.9h-11.3
						c-4,0-7.2-3.2-7.2-7.2c0-4,3.2-7.2,7.2-7.2h11.3L-171.3,354.5L-171.3,354.5z"/>
				</g>
			</g>
		</g>
	</g>
</g>
</svg>
