<?xml version="1.0" encoding="UTF-8"?>
<svg width="90px" height="85px" viewBox="0 0 90 85" version="1.1" xmlns="http://www.w3.org/2000/svg" xmlns:xlink="http://www.w3.org/1999/xlink">
    <!-- Generator: Sketch 44.1 (41455) - http://www.bohemiancoding.com/sketch -->
    <title>timevector</title>
    <desc>Created with Sketch.</desc>
    <defs>
        <polygon id="path-1" points="0 43.2974413 0 1.48656522 89.4918994 1.48656522 89.4918994 43.2974413 89.4918994 85.1083174 0 85.1083174"></polygon>
    </defs>
    <g id="home" stroke="none" stroke-width="1" fill="none" fill-rule="evenodd">
        <g id="landing-post-workout-01" transform="translate(-679.000000, -2622.000000)">
            <g id="time" transform="translate(679.000000, 2621.000000)">
                <g id="Group-5" transform="translate(0.000000, 0.404550)">
                    <mask id="mask-2" fill="white">
                        <use xlink:href="#path-1"></use>
                    </mask>
                    <g id="Clip-4"></g>
                    <path d="M59.6572181,53.7504913 C59.0985769,53.7504913 58.5277913,53.6313391 57.9934388,53.3854696 L43.0781222,46.416013 C41.8151072,45.8240348 41.0176266,44.6173826 41.0176266,43.2972522 L41.0176266,18.9069913 C41.0176266,16.9854261 42.6874781,15.4232087 44.7459497,15.4232087 C46.8044213,15.4232087 48.4742728,16.9854261 48.4742728,18.9069913 L48.4742728,41.1449478 L61.3270697,47.1517304 C63.1689666,48.0122739 63.9158456,50.1059478 62.9948972,51.8270348 C62.341125,53.0469261 61.0254844,53.7504913 59.6572181,53.7504913 M44.7459497,85.1083174 C20.0726278,85.1083174 0,66.3522522 0,43.2972522 C0,20.2422522 20.0726278,1.48618696 44.7459497,1.48618696 C69.4192716,1.48618696 89.4918994,20.2422522 89.4918994,43.2972522 C89.4918994,66.3522522 69.4192716,85.1083174 44.7459497,85.1083174 M44.7459497,8.45564348 C24.1855228,8.45564348 7.45664625,24.0853826 7.45664625,43.2972522 C7.45664625,62.5091217 24.1855228,78.1407522 44.7459497,78.1407522 C65.3063766,78.1407522 82.0332291,62.5091217 82.0332291,43.2972522 C82.0332291,24.0853826 65.3063766,8.45564348 44.7459497,8.45564348" id="Fill-3" fill="#FCC700" mask="url(#mask-2)"></path>
                </g>
            </g>
        </g>
    </g>
</svg>