<?xml version="1.0" encoding="UTF-8"?>
<svg width="82px" height="98px" viewBox="0 0 82 98" version="1.1" xmlns="http://www.w3.org/2000/svg" xmlns:xlink="http://www.w3.org/1999/xlink">
    <!-- Generator: Sketch 44.1 (41455) - http://www.bohemiancoding.com/sketch -->
    <title>valori nutrizionali@2x</title>
    <desc>Created with Sketch.</desc>
    <defs>
        <polygon id="path-1" points="40.6485883 99.0343335 81.2963019 99.0343335 81.2963019 1.25649811 40.6485883 1.25649811 0.00087464552 1.25649811 0.00087464552 99.0343335"></polygon>
    </defs>
    <g id="home" stroke="none" stroke-width="1" fill="none" fill-rule="evenodd">
        <g id="landing-post-workout-01" transform="translate(-191.000000, -1948.000000)">
            <g id="valori-nutrizionali" transform="translate(191.000000, 1946.000000)">
                <g id="Group-3" transform="translate(0.000000, 0.807130)">
                    <mask id="mask-2" fill="white">
                        <use xlink:href="#path-1"></use>
                    </mask>
                    <g id="Clip-2"></g>
                    <path d="M71.6122717,99.0343335 L9.68359245,99.0343335 C4.34540377,99.0343335 0.000875471698,94.9388512 0.000875471698,89.9046059 L0.000875471698,10.3862257 C-0.00131320755,5.35198044 4.34540377,1.25649811 9.68359245,1.25649811 L71.6122717,1.25649811 C76.9526491,1.25649811 81.2971774,5.35198044 81.2971774,10.3862257 L81.2971774,89.9046059 C81.2971774,94.9388512 76.9526491,99.0343335 71.6122717,99.0343335 L71.6122717,99.0343335 Z M9.68359245,6.05966328 C7.15566792,6.05966328 5.09830943,8.00114886 5.09830943,10.3841625 L5.09830943,89.9046059 C5.09830943,92.2896828 7.15566792,94.2270419 9.68359245,94.2270419 L71.6122717,94.2270419 C74.1423849,94.2270419 76.1997434,92.2896828 76.1997434,89.9046059 L76.1997434,10.3862257 C76.1997434,8.00114886 74.1423849,6.0617265 71.6122717,6.0617265 L9.68359245,6.0617265 L9.68359245,6.05966328 Z" id="Fill-1" fill="#236960" mask="url(#mask-2)"></path>
                </g>
                <polygon id="Fill-4" fill="#236960" points="10.958717 33.8619019 70.3375849 33.8619019 70.3375849 31.9389852 10.958717 31.9389852"></polygon>
                <polygon id="Fill-5" fill="#236960" points="10.958717 44.607127 70.3375849 44.607127 70.3375849 42.6842104 10.958717 42.6842104"></polygon>
                <polygon id="Fill-6" fill="#236960" points="10.958717 66.0996406 70.3375849 66.0996406 70.3375849 64.176724 10.958717 64.176724"></polygon>
                <polygon id="Fill-7" fill="#236960" points="10.958717 76.8448658 70.3375849 76.8448658 70.3375849 74.9219492 10.958717 74.9219492"></polygon>
                <polygon id="Fill-8" fill="#236960" points="10.958717 87.590091 70.3375849 87.590091 70.3375849 85.6671744 10.958717 85.6671744"></polygon>
                <polygon id="Fill-9" fill="#236960" points="10.958717 40.8170006 21.8276981 40.8170006 21.8276981 36.0117722 10.958717 36.0117722"></polygon>
                <polygon id="Fill-10" fill="#FCC700" points="64.9030943 40.6746387 70.3397736 40.6746387 70.3397736 35.8714735 64.9030943 35.8714735"></polygon>
                <polygon id="Fill-11" fill="#FCC700" points="63.0383396 62.1671523 70.3397736 62.1671523 70.3397736 57.3619239 63.0383396 57.3619239"></polygon>
                <polygon id="Fill-12" fill="#FCC700" points="65.9558491 72.9123775 70.3397736 72.9123775 70.3397736 68.1071491 65.9558491 68.1071491"></polygon>
                <polygon id="Fill-13" fill="#FCC700" points="60.7643019 29.9314767 70.3375849 29.9314767 70.3375849 25.1262483 60.7643019 25.1262483"></polygon>
                <polygon id="Fill-14" fill="#236960" points="10.958717 51.5271511 26.3713962 51.5271511 26.3713962 46.7239859 10.958717 46.7239859"></polygon>
                <polygon id="Fill-15" fill="#FCC700" points="65.9558491 83.6576027 70.3397736 83.6576027 70.3397736 78.8523743 65.9558491 78.8523743"></polygon>
                <polygon id="Fill-16" fill="#FCC700" points="65.9558491 51.4219271 70.3397736 51.4219271 70.3397736 46.6166987 65.9558491 46.6166987"></polygon>
                <polygon id="Fill-17" fill="#236960" points="10.958717 62.2455545 23.2897358 62.2455545 23.2897358 57.4403261 10.958717 57.4403261"></polygon>
                <polygon id="Fill-18" fill="#236960" points="10.958717 72.9577682 30.4270189 72.9577682 30.4270189 68.1525398 10.958717 68.1525398"></polygon>
                <polygon id="Fill-19" fill="#236960" points="10.958717 83.6720452 22.4755472 83.6720452 22.4755472 78.8668168 10.958717 78.8668168"></polygon>
                <polygon id="Fill-20" fill="#236960" points="10.958717 55.3544154 70.3375849 55.3544154 70.3375849 53.4314988 10.958717 53.4314988"></polygon>
                <g id="Group-25" transform="translate(10.943396, 9.059991)">
                    <path d="M12.3993057,5.77535222 C9.92172075,5.77535222 9.18632453,6.53255223 8.38307925,6.53255223 C7.57983396,6.53255223 6.84224906,5.77535222 4.36685283,5.77535222 C1.88926792,5.77535222 0.0157584906,8.2161359 0.0157584906,10.9065686 C0.0157584906,13.5990646 2.82602264,19.9104401 5.90549434,19.9104401 C7.51198491,19.9104401 7.91470189,19.5308085 8.38307925,19.5308085 C8.8514566,19.5308085 9.25198491,19.9104401 10.8584755,19.9104401 C13.9379472,19.9104401 16.7504,13.5990646 16.7504,10.9065686 C16.7504,8.2161359 14.8768906,5.77535222 12.3993057,5.77535222" id="Fill-21" fill="#CC1719"></path>
                    <path d="M8.3861434,5.82631363 C7.86086038,5.82631363 7.41655849,5.44874524 7.37278491,4.94738392 C7.2786717,3.93021879 7.67701132,1.80923348 9.84599245,1.06028633 C10.3734642,0.876660173 10.9578415,1.13249887 11.152634,1.62973375 C11.3474264,2.12903185 11.0760302,2.67991033 10.5463698,2.86353649 C9.28350189,3.30093813 9.40387925,4.7678842 9.40387925,4.78438992 C9.45203019,5.31257303 9.03618113,5.77679647 8.47587925,5.82425042 C8.44523774,5.82631363 8.41459623,5.82631363 8.3861434,5.82631363" id="Fill-23" fill="#3FA435"></path>
                </g>
            </g>
        </g>
    </g>
</svg>